# Blender v2.91.2 OBJ File: '9x19mm.blend'
# www.blender.org
mtllib 9x19mm_shell.mtl
o sleeve_Цилиндр.002
v 0.000000 0.000084 -0.004750
v 0.000000 0.019084 -0.004750
v 0.000927 0.000084 -0.004659
v 0.000927 0.019084 -0.004659
v 0.001818 0.000084 -0.004388
v 0.001818 0.019084 -0.004388
v 0.002639 0.000084 -0.003949
v 0.002639 0.019084 -0.003949
v 0.003359 0.000084 -0.003359
v 0.003359 0.019084 -0.003359
v 0.003949 0.000084 -0.002639
v 0.003949 0.019084 -0.002639
v 0.004388 0.000084 -0.001818
v 0.004388 0.019084 -0.001818
v 0.004659 0.000084 -0.000927
v 0.004659 0.019084 -0.000927
v 0.004750 0.000084 -0.000000
v 0.004750 0.019084 -0.000000
v 0.004659 0.000084 0.000927
v 0.004659 0.019084 0.000927
v 0.004388 0.000084 0.001818
v 0.004388 0.019084 0.001818
v 0.003949 0.000084 0.002639
v 0.003949 0.019084 0.002639
v 0.003359 0.000084 0.003359
v 0.003359 0.019084 0.003359
v 0.002639 0.000084 0.003949
v 0.002639 0.019084 0.003949
v 0.001818 0.000084 0.004388
v 0.001818 0.019084 0.004388
v 0.000927 0.000084 0.004659
v 0.000927 0.019084 0.004659
v -0.000000 0.000084 0.004750
v -0.000000 0.019084 0.004750
v -0.000927 0.000084 0.004659
v -0.000927 0.019084 0.004659
v -0.001818 0.000084 0.004388
v -0.001818 0.019084 0.004388
v -0.002639 0.000084 0.003949
v -0.002639 0.019084 0.003949
v -0.003359 0.000084 0.003359
v -0.003359 0.019084 0.003359
v -0.003949 0.000084 0.002639
v -0.003949 0.019084 0.002639
v -0.004388 0.000084 0.001818
v -0.004388 0.019084 0.001818
v -0.004659 0.000084 0.000927
v -0.004659 0.019084 0.000927
v -0.004750 0.000084 -0.000000
v -0.004750 0.019084 -0.000000
v -0.004659 0.000084 -0.000927
v -0.004659 0.019084 -0.000927
v -0.004388 0.000084 -0.001818
v -0.004388 0.019084 -0.001818
v -0.003949 0.000084 -0.002639
v -0.003949 0.019084 -0.002639
v -0.003359 0.000084 -0.003359
v -0.003359 0.019084 -0.003359
v -0.002639 0.000084 -0.003949
v -0.002639 0.019084 -0.003949
v -0.001818 0.000084 -0.004388
v -0.001818 0.019084 -0.004388
v -0.000927 0.000084 -0.004659
v -0.000927 0.019084 -0.004659
v 0.000000 0.003084 -0.004750
v 0.000927 0.003084 -0.004659
v 0.001818 0.003084 -0.004388
v 0.002639 0.003084 -0.003949
v 0.003359 0.003084 -0.003359
v 0.003949 0.003084 -0.002639
v 0.004388 0.003084 -0.001818
v 0.004659 0.003084 -0.000927
v 0.004750 0.003084 -0.000000
v 0.004659 0.003084 0.000927
v 0.004388 0.003084 0.001818
v 0.003949 0.003084 0.002639
v 0.003359 0.003084 0.003359
v 0.002639 0.003084 0.003949
v 0.001818 0.003084 0.004388
v 0.000927 0.003084 0.004659
v -0.000000 0.003084 0.004750
v -0.000927 0.003084 0.004659
v -0.001818 0.003084 0.004388
v -0.002639 0.003084 0.003949
v -0.003359 0.003084 0.003359
v -0.003949 0.003084 0.002639
v -0.004388 0.003084 0.001818
v -0.004659 0.003084 0.000927
v -0.004750 0.003084 -0.000000
v -0.004659 0.003084 -0.000927
v -0.004388 0.003084 -0.001818
v -0.003949 0.003084 -0.002639
v -0.003359 0.003084 -0.003359
v -0.002639 0.003084 -0.003949
v -0.001818 0.003084 -0.004388
v -0.000927 0.003084 -0.004659
v 0.000862 0.002084 -0.004333
v 0.001691 0.002084 -0.004081
v 0.002454 0.002084 -0.003673
v 0.003124 0.002084 -0.003124
v 0.003673 0.002084 -0.002454
v 0.004081 0.002084 -0.001691
v 0.004333 0.002084 -0.000862
v 0.004417 0.002084 -0.000000
v 0.004333 0.002084 0.000862
v 0.004081 0.002084 0.001691
v 0.003673 0.002084 0.002454
v 0.003124 0.002084 0.003124
v 0.002454 0.002084 0.003673
v 0.001691 0.002084 0.004081
v 0.000862 0.002084 0.004333
v -0.000000 0.002084 0.004417
v -0.000862 0.002084 0.004333
v -0.001691 0.002084 0.004081
v -0.002454 0.002084 0.003673
v -0.003124 0.002084 0.003124
v -0.003673 0.002084 0.002454
v -0.004081 0.002084 0.001691
v -0.004333 0.002084 0.000862
v -0.004417 0.002084 -0.000000
v -0.004333 0.002084 -0.000862
v -0.004081 0.002084 -0.001691
v -0.003673 0.002084 -0.002454
v -0.003124 0.002084 -0.003124
v -0.002454 0.002084 -0.003673
v -0.001690 0.002084 -0.004081
v -0.000862 0.002084 -0.004333
v 0.000000 0.002084 -0.004417
v 0.000927 0.001159 -0.004659
v 0.001818 0.001159 -0.004388
v 0.002639 0.001159 -0.003949
v 0.003359 0.001159 -0.003359
v 0.003949 0.001159 -0.002639
v 0.004388 0.001159 -0.001818
v 0.004659 0.001159 -0.000927
v 0.004750 0.001159 -0.000000
v 0.004659 0.001159 0.000927
v 0.004388 0.001159 0.001818
v 0.003949 0.001159 0.002639
v 0.003359 0.001159 0.003359
v 0.002639 0.001159 0.003949
v 0.001818 0.001159 0.004388
v 0.000927 0.001159 0.004659
v -0.000000 0.001159 0.004750
v -0.000927 0.001159 0.004659
v -0.001818 0.001159 0.004388
v -0.002639 0.001159 0.003949
v -0.003359 0.001159 0.003359
v -0.003949 0.001159 0.002639
v -0.004388 0.001159 0.001818
v -0.004659 0.001159 0.000927
v -0.004750 0.001159 -0.000000
v -0.004659 0.001159 -0.000927
v -0.004388 0.001159 -0.001818
v -0.003949 0.001159 -0.002639
v -0.003359 0.001159 -0.003359
v -0.002639 0.001159 -0.003949
v -0.001818 0.001159 -0.004388
v -0.000927 0.001159 -0.004659
v 0.000000 0.001159 -0.004750
v 0.000000 0.001146 -0.004418
v 0.000862 0.001146 -0.004333
v 0.001691 0.001146 -0.004081
v 0.002454 0.001146 -0.003673
v 0.003124 0.001146 -0.003124
v 0.003673 0.001146 -0.002454
v 0.004081 0.001146 -0.001691
v 0.004333 0.001146 -0.000862
v 0.004417 0.001146 -0.000000
v 0.004333 0.001146 0.000862
v 0.004081 0.001146 0.001691
v 0.003673 0.001146 0.002454
v 0.003124 0.001146 0.003124
v 0.002454 0.001146 0.003673
v 0.001691 0.001146 0.004081
v 0.000862 0.001146 0.004333
v -0.000000 0.001146 0.004417
v -0.000862 0.001146 0.004333
v -0.001691 0.001146 0.004081
v -0.002454 0.001146 0.003673
v -0.003124 0.001146 0.003124
v -0.003673 0.001146 0.002454
v -0.004081 0.001146 0.001691
v -0.004333 0.001146 0.000862
v -0.004417 0.001146 -0.000000
v -0.004333 0.001146 -0.000862
v -0.004081 0.001146 -0.001691
v -0.003673 0.001146 -0.002454
v -0.003124 0.001146 -0.003124
v -0.002454 0.001146 -0.003673
v -0.001690 0.001146 -0.004081
v -0.000862 0.001146 -0.004333
vt 1.000000 0.750000
vt 1.000000 1.000000
vt 0.968750 1.000000
vt 0.968750 0.750000
vt 0.937500 1.000000
vt 0.937500 0.750000
vt 0.906250 1.000000
vt 0.906250 0.750000
vt 0.875000 1.000000
vt 0.875000 0.750000
vt 0.843750 1.000000
vt 0.843750 0.750000
vt 0.812500 1.000000
vt 0.812500 0.750000
vt 0.781250 1.000000
vt 0.781250 0.750000
vt 0.750000 1.000000
vt 0.750000 0.750000
vt 0.718750 1.000000
vt 0.718750 0.750000
vt 0.687500 1.000000
vt 0.687500 0.750000
vt 0.656250 1.000000
vt 0.656250 0.750000
vt 0.625000 1.000000
vt 0.625000 0.750000
vt 0.593750 1.000000
vt 0.593750 0.750000
vt 0.562500 1.000000
vt 0.562500 0.750000
vt 0.531250 1.000000
vt 0.531250 0.750000
vt 0.500000 1.000000
vt 0.500000 0.750000
vt 0.468750 1.000000
vt 0.468750 0.750000
vt 0.437500 1.000000
vt 0.437500 0.750000
vt 0.406250 1.000000
vt 0.406250 0.750000
vt 0.375000 1.000000
vt 0.375000 0.750000
vt 0.343750 1.000000
vt 0.343750 0.750000
vt 0.312500 1.000000
vt 0.312500 0.750000
vt 0.281250 1.000000
vt 0.281250 0.750000
vt 0.250000 1.000000
vt 0.250000 0.750000
vt 0.218750 1.000000
vt 0.218750 0.750000
vt 0.187500 1.000000
vt 0.187500 0.750000
vt 0.156250 1.000000
vt 0.156250 0.750000
vt 0.125000 1.000000
vt 0.125000 0.750000
vt 0.093750 1.000000
vt 0.093750 0.750000
vt 0.062500 1.000000
vt 0.062500 0.750000
vt 0.031250 1.000000
vt 0.031250 0.750000
vt 0.000000 1.000000
vt 0.000000 0.750000
vt 0.750000 0.490000
vt 0.796822 0.485388
vt 0.841844 0.471731
vt 0.883337 0.449553
vt 0.919706 0.419706
vt 0.949553 0.383337
vt 0.971731 0.341844
vt 0.985388 0.296822
vt 0.990000 0.250000
vt 0.985389 0.203178
vt 0.971731 0.158156
vt 0.949553 0.116663
vt 0.919706 0.080294
vt 0.883337 0.050447
vt 0.841844 0.028269
vt 0.796822 0.014612
vt 0.750000 0.010000
vt 0.703178 0.014612
vt 0.658156 0.028269
vt 0.616663 0.050447
vt 0.580294 0.080294
vt 0.550447 0.116663
vt 0.528269 0.158156
vt 0.514611 0.203179
vt 0.510000 0.250000
vt 0.514612 0.296822
vt 0.528269 0.341844
vt 0.550447 0.383337
vt 0.580295 0.419706
vt 0.616663 0.449553
vt 0.658156 0.471731
vt 0.703179 0.485389
vt 0.031250 0.625000
vt 0.000000 0.625000
vt 0.062500 0.625000
vt 0.093750 0.625000
vt 0.125000 0.625000
vt 0.156250 0.625000
vt 0.187500 0.625000
vt 0.218750 0.625000
vt 0.250000 0.625000
vt 0.281250 0.625000
vt 0.312500 0.625000
vt 0.343750 0.625000
vt 0.375000 0.625000
vt 0.406250 0.625000
vt 0.437500 0.625000
vt 0.468750 0.625000
vt 0.500000 0.625000
vt 0.531250 0.625000
vt 0.562500 0.625000
vt 0.593750 0.625000
vt 0.625000 0.625000
vt 0.656250 0.625000
vt 0.687500 0.625000
vt 0.718750 0.625000
vt 0.750000 0.625000
vt 0.781250 0.625000
vt 0.812500 0.625000
vt 0.843750 0.625000
vt 0.875000 0.625000
vt 0.906250 0.625000
vt 0.937500 0.625000
vt 0.968750 0.625000
vt 1.000000 0.593750
vt 1.000000 0.625000
vt 0.968750 0.593750
vt 0.937500 0.593750
vt 0.906250 0.593750
vt 0.875000 0.593750
vt 0.843750 0.593750
vt 0.812500 0.593750
vt 0.781250 0.593750
vt 0.750000 0.593750
vt 0.718750 0.593750
vt 0.687500 0.593750
vt 0.656250 0.593750
vt 0.625000 0.593750
vt 0.593750 0.593750
vt 0.562500 0.593750
vt 0.531250 0.593750
vt 0.500000 0.593750
vt 0.468750 0.593750
vt 0.437500 0.593750
vt 0.406250 0.593750
vt 0.375000 0.593750
vt 0.343750 0.593750
vt 0.312500 0.593750
vt 0.281250 0.593750
vt 0.250000 0.593750
vt 0.218750 0.593750
vt 0.187500 0.593750
vt 0.156250 0.593750
vt 0.125000 0.593750
vt 0.093750 0.593750
vt 0.062500 0.593750
vt 0.031250 0.593750
vt 0.000000 0.593750
vt 0.031250 0.500000
vt 0.031250 0.562500
vt 0.000000 0.562500
vt 0.000000 0.500000
vt 0.062500 0.500000
vt 0.062500 0.562500
vt 0.093750 0.500000
vt 0.093750 0.562500
vt 0.125000 0.500000
vt 0.125000 0.562500
vt 0.156250 0.500000
vt 0.156250 0.562500
vt 0.187500 0.500000
vt 0.187500 0.562500
vt 0.218750 0.500000
vt 0.218750 0.562500
vt 0.250000 0.500000
vt 0.250000 0.562500
vt 0.281250 0.500000
vt 0.281250 0.562500
vt 0.312500 0.500000
vt 0.312500 0.562500
vt 0.343750 0.500000
vt 0.343750 0.562500
vt 0.375000 0.500000
vt 0.375000 0.562500
vt 0.406250 0.500000
vt 0.406250 0.562500
vt 0.437500 0.500000
vt 0.437500 0.562500
vt 0.468750 0.500000
vt 0.468750 0.562500
vt 0.500000 0.500000
vt 0.500000 0.562500
vt 0.531250 0.500000
vt 0.531250 0.562500
vt 0.562500 0.500000
vt 0.562500 0.562500
vt 0.593750 0.500000
vt 0.593750 0.562500
vt 0.625000 0.500000
vt 0.625000 0.562500
vt 0.656250 0.500000
vt 0.656250 0.562500
vt 0.687500 0.500000
vt 0.687500 0.562500
vt 0.718750 0.500000
vt 0.718750 0.562500
vt 0.750000 0.500000
vt 0.750000 0.562500
vt 0.781250 0.500000
vt 0.781250 0.562500
vt 0.812500 0.500000
vt 0.812500 0.562500
vt 0.843750 0.500000
vt 0.843750 0.562500
vt 0.875000 0.500000
vt 0.875000 0.562500
vt 0.906250 0.500000
vt 0.906250 0.562500
vt 0.937500 0.500000
vt 0.937500 0.562500
vt 0.968750 0.500000
vt 0.968750 0.562500
vt 1.000000 0.500000
vt 1.000000 0.562500
vn 0.0000 -0.1582 -0.9874
vn 0.0000 0.0000 -1.0000
vn 0.1951 0.0000 -0.9808
vn 0.1926 -0.1582 -0.9684
vn 0.3827 0.0000 -0.9239
vn 0.3778 -0.1582 -0.9122
vn 0.5556 0.0000 -0.8314
vn 0.5485 -0.1582 -0.8210
vn 0.7071 0.0000 -0.7071
vn 0.6982 -0.1582 -0.6982
vn 0.8314 0.0000 -0.5556
vn 0.8210 -0.1582 -0.5485
vn 0.9239 0.0000 -0.3827
vn 0.9122 -0.1582 -0.3778
vn 0.9808 0.0000 -0.1951
vn 0.9684 -0.1582 -0.1926
vn 1.0000 0.0000 0.0000
vn 0.9874 -0.1582 0.0000
vn 0.9808 0.0000 0.1951
vn 0.9684 -0.1582 0.1926
vn 0.9239 0.0000 0.3827
vn 0.9122 -0.1582 0.3778
vn 0.8314 0.0000 0.5556
vn 0.8210 -0.1582 0.5485
vn 0.7071 0.0000 0.7071
vn 0.6982 -0.1582 0.6982
vn 0.5556 0.0000 0.8314
vn 0.5485 -0.1582 0.8210
vn 0.3827 0.0000 0.9239
vn 0.3778 -0.1582 0.9122
vn 0.1951 0.0000 0.9808
vn 0.1926 -0.1582 0.9684
vn 0.0000 0.0000 1.0000
vn 0.0000 -0.1582 0.9874
vn -0.1951 0.0000 0.9808
vn -0.1926 -0.1582 0.9684
vn -0.3827 0.0000 0.9239
vn -0.3778 -0.1582 0.9122
vn -0.5556 0.0000 0.8314
vn -0.5485 -0.1582 0.8210
vn -0.7071 0.0000 0.7071
vn -0.6982 -0.1582 0.6982
vn -0.8314 0.0000 0.5556
vn -0.8210 -0.1582 0.5485
vn -0.9239 0.0000 0.3827
vn -0.9122 -0.1582 0.3778
vn -0.9808 0.0000 0.1951
vn -0.9684 -0.1582 0.1926
vn -1.0000 0.0000 0.0000
vn -0.9874 -0.1582 0.0000
vn -0.9808 0.0000 -0.1951
vn -0.9684 -0.1582 -0.1926
vn -0.9239 0.0000 -0.3827
vn -0.9122 -0.1582 -0.3778
vn -0.8314 0.0000 -0.5556
vn -0.8210 -0.1582 -0.5485
vn -0.7071 0.0000 -0.7071
vn -0.6982 -0.1582 -0.6982
vn -0.5556 0.0000 -0.8314
vn -0.5485 -0.1582 -0.8210
vn -0.3827 0.0000 -0.9239
vn -0.3778 -0.1582 -0.9122
vn -0.1951 0.0000 -0.9808
vn -0.1926 -0.1582 -0.9684
vn 0.0000 -0.6857 -0.7279
vn 0.1420 -0.6857 -0.7139
vn 0.2785 -0.6857 -0.6725
vn 0.4044 -0.6857 -0.6052
vn 0.5147 -0.6857 -0.5147
vn 0.6052 -0.6857 -0.4044
vn 0.6725 -0.6857 -0.2785
vn 0.7139 -0.6857 -0.1420
vn 0.7279 -0.6857 0.0000
vn 0.7139 -0.6857 0.1420
vn 0.6725 -0.6857 0.2785
vn 0.6052 -0.6857 0.4044
vn 0.5147 -0.6857 0.5147
vn 0.4044 -0.6857 0.6052
vn 0.2785 -0.6857 0.6725
vn 0.1420 -0.6857 0.7139
vn 0.0000 -0.6857 0.7279
vn -0.1420 -0.6857 0.7139
vn -0.2785 -0.6857 0.6725
vn -0.4044 -0.6857 0.6052
vn -0.5147 -0.6857 0.5147
vn -0.6052 -0.6857 0.4044
vn -0.6725 -0.6857 0.2785
vn -0.7139 -0.6857 0.1420
vn -0.7279 -0.6857 0.0000
vn -0.7139 -0.6857 -0.1420
vn -0.6725 -0.6857 -0.2785
vn -0.6052 -0.6857 -0.4044
vn -0.5147 -0.6857 -0.5147
vn -0.4044 -0.6857 -0.6052
vn -0.2785 -0.6857 -0.6725
vn -0.1420 -0.6857 -0.7139
vn -0.1925 -0.1614 -0.9679
vn 0.0000 -0.1614 -0.9869
vn -0.3776 -0.1614 -0.9117
vn -0.5483 -0.1614 -0.8206
vn -0.6978 -0.1614 -0.6978
vn -0.8206 -0.1614 -0.5483
vn -0.9117 -0.1614 -0.3776
vn -0.9679 -0.1614 -0.1925
vn -0.9869 -0.1614 0.0000
vn -0.9679 -0.1614 0.1925
vn -0.9117 -0.1614 0.3776
vn -0.8206 -0.1614 0.5483
vn -0.6978 -0.1614 0.6978
vn -0.5483 -0.1614 0.8206
vn -0.3776 -0.1614 0.9117
vn -0.1925 -0.1614 0.9679
vn 0.0000 -0.1614 0.9869
vn 0.1925 -0.1614 0.9679
vn 0.3776 -0.1614 0.9117
vn 0.5483 -0.1614 0.8206
vn 0.6978 -0.1614 0.6978
vn 0.8206 -0.1614 0.5483
vn 0.9117 -0.1614 0.3776
vn 0.9679 -0.1614 0.1925
vn 0.9869 -0.1614 0.0000
vn 0.9679 -0.1614 -0.1925
vn 0.9117 -0.1614 -0.3776
vn 0.8206 -0.1614 -0.5483
vn 0.6978 -0.1614 -0.6978
vn 0.5483 -0.1614 -0.8206
vn 0.3776 -0.1614 -0.9117
vn 0.1925 -0.1614 -0.9679
vn 0.0000 0.7434 -0.6688
vn 0.1305 0.7434 -0.6560
vn 0.2560 0.7434 -0.6179
vn 0.3716 0.7434 -0.5561
vn 0.4729 0.7434 -0.4729
vn 0.5561 0.7434 -0.3716
vn 0.6179 0.7434 -0.2560
vn 0.6560 0.7434 -0.1305
vn 0.6688 0.7434 0.0000
vn 0.6560 0.7434 0.1305
vn 0.6179 0.7434 0.2560
vn 0.5561 0.7434 0.3716
vn 0.4729 0.7434 0.4729
vn 0.3716 0.7434 0.5561
vn 0.2560 0.7434 0.6179
vn 0.1305 0.7434 0.6560
vn 0.0000 0.7434 0.6688
vn -0.1305 0.7434 0.6560
vn -0.2560 0.7434 0.6179
vn -0.3716 0.7434 0.5561
vn -0.4729 0.7434 0.4729
vn -0.5561 0.7434 0.3716
vn -0.6179 0.7434 0.2560
vn -0.6560 0.7434 0.1305
vn -0.6688 0.7434 0.0000
vn -0.6560 0.7434 -0.1305
vn -0.6179 0.7434 -0.2560
vn -0.5561 0.7434 -0.3716
vn -0.4729 0.7434 -0.4729
vn -0.3716 0.7434 -0.5561
vn -0.2560 0.7434 -0.6179
vn -0.1305 0.7434 -0.6560
vn -0.1396 0.6984 -0.7019
vn 0.0000 0.6984 -0.7157
vn -0.2738 0.6984 -0.6612
vn -0.3976 0.6984 -0.5950
vn -0.5060 0.6984 -0.5060
vn -0.5950 0.6984 -0.3976
vn -0.6612 0.6984 -0.2738
vn -0.7019 0.6984 -0.1396
vn -0.7157 0.6984 0.0000
vn -0.7019 0.6984 0.1396
vn -0.6612 0.6984 0.2738
vn -0.5950 0.6984 0.3976
vn -0.5060 0.6984 0.5060
vn -0.3976 0.6984 0.5950
vn -0.2738 0.6984 0.6612
vn -0.1396 0.6984 0.7019
vn 0.0000 0.6984 0.7157
vn 0.1396 0.6984 0.7019
vn 0.2738 0.6984 0.6612
vn 0.3976 0.6984 0.5950
vn 0.5060 0.6984 0.5060
vn 0.5950 0.6984 0.3976
vn 0.6612 0.6984 0.2738
vn 0.7019 0.6984 0.1396
vn 0.7157 0.6984 0.0000
vn 0.7019 0.6984 -0.1396
vn 0.6612 0.6984 -0.2738
vn 0.5950 0.6984 -0.3976
vn 0.5060 0.6984 -0.5060
vn 0.3976 0.6984 -0.5950
vn 0.2738 0.6984 -0.6612
vn 0.1396 0.6984 -0.7019
usemtl brass
s 1
f 65/1/1 2/2/2 4/3/3 66/4/4
f 66/4/4 4/3/3 6/5/5 67/6/6
f 67/6/6 6/5/5 8/7/7 68/8/8
f 68/8/8 8/7/7 10/9/9 69/10/10
f 69/10/10 10/9/9 12/11/11 70/12/12
f 70/12/12 12/11/11 14/13/13 71/14/14
f 71/14/14 14/13/13 16/15/15 72/16/16
f 72/16/16 16/15/15 18/17/17 73/18/18
f 73/18/18 18/17/17 20/19/19 74/20/20
f 74/20/20 20/19/19 22/21/21 75/22/22
f 75/22/22 22/21/21 24/23/23 76/24/24
f 76/24/24 24/23/23 26/25/25 77/26/26
f 77/26/26 26/25/25 28/27/27 78/28/28
f 78/28/28 28/27/27 30/29/29 79/30/30
f 79/30/30 30/29/29 32/31/31 80/32/32
f 80/32/32 32/31/31 34/33/33 81/34/34
f 81/34/34 34/33/33 36/35/35 82/36/36
f 82/36/36 36/35/35 38/37/37 83/38/38
f 83/38/38 38/37/37 40/39/39 84/40/40
f 84/40/40 40/39/39 42/41/41 85/42/42
f 85/42/42 42/41/41 44/43/43 86/44/44
f 86/44/44 44/43/43 46/45/45 87/46/46
f 87/46/46 46/45/45 48/47/47 88/48/48
f 88/48/48 48/47/47 50/49/49 89/50/50
f 89/50/50 50/49/49 52/51/51 90/52/52
f 90/52/52 52/51/51 54/53/53 91/54/54
f 91/54/54 54/53/53 56/55/55 92/56/56
f 92/56/56 56/55/55 58/57/57 93/58/58
f 93/58/58 58/57/57 60/59/59 94/60/60
f 94/60/60 60/59/59 62/61/61 95/62/62
f 95/62/62 62/61/61 64/63/63 96/64/64
f 96/64/64 64/63/63 2/65/2 65/66/1
f 1/67/65 3/68/66 5/69/67 7/70/68 9/71/69 11/72/70 13/73/71 15/74/72 17/75/73 19/76/74 21/77/75 23/78/76 25/79/77 27/80/78 29/81/79 31/82/80 33/83/81 35/84/82 37/85/83 39/86/84 41/87/85 43/88/86 45/89/87 47/90/88 49/91/89 51/92/90 53/93/91 55/94/92 57/95/93 59/96/94 61/97/95 63/98/96
f 127/99/97 96/64/64 65/66/1 128/100/98
f 126/101/99 95/62/62 96/64/64 127/99/97
f 125/102/100 94/60/60 95/62/62 126/101/99
f 124/103/101 93/58/58 94/60/60 125/102/100
f 123/104/102 92/56/56 93/58/58 124/103/101
f 122/105/103 91/54/54 92/56/56 123/104/102
f 121/106/104 90/52/52 91/54/54 122/105/103
f 120/107/105 89/50/50 90/52/52 121/106/104
f 119/108/106 88/48/48 89/50/50 120/107/105
f 118/109/107 87/46/46 88/48/48 119/108/106
f 117/110/108 86/44/44 87/46/46 118/109/107
f 116/111/109 85/42/42 86/44/44 117/110/108
f 115/112/110 84/40/40 85/42/42 116/111/109
f 114/113/111 83/38/38 84/40/40 115/112/110
f 113/114/112 82/36/36 83/38/38 114/113/111
f 112/115/113 81/34/34 82/36/36 113/114/112
f 111/116/114 80/32/32 81/34/34 112/115/113
f 110/117/115 79/30/30 80/32/32 111/116/114
f 109/118/116 78/28/28 79/30/30 110/117/115
f 108/119/117 77/26/26 78/28/28 109/118/116
f 107/120/118 76/24/24 77/26/26 108/119/117
f 106/121/119 75/22/22 76/24/24 107/120/118
f 105/122/120 74/20/20 75/22/22 106/121/119
f 104/123/121 73/18/18 74/20/20 105/122/120
f 103/124/122 72/16/16 73/18/18 104/123/121
f 102/125/123 71/14/14 72/16/16 103/124/122
f 101/126/124 70/12/12 71/14/14 102/125/123
f 100/127/125 69/10/10 70/12/12 101/126/124
f 99/128/126 68/8/8 69/10/10 100/127/125
f 98/129/127 67/6/6 68/8/8 99/128/126
f 97/130/128 66/4/4 67/6/6 98/129/127
f 161/131/129 128/132/98 97/130/128 162/133/130
f 162/133/130 97/130/128 98/129/127 163/134/131
f 163/134/131 98/129/127 99/128/126 164/135/132
f 164/135/132 99/128/126 100/127/125 165/136/133
f 165/136/133 100/127/125 101/126/124 166/137/134
f 166/137/134 101/126/124 102/125/123 167/138/135
f 167/138/135 102/125/123 103/124/122 168/139/136
f 168/139/136 103/124/122 104/123/121 169/140/137
f 169/140/137 104/123/121 105/122/120 170/141/138
f 170/141/138 105/122/120 106/121/119 171/142/139
f 171/142/139 106/121/119 107/120/118 172/143/140
f 172/143/140 107/120/118 108/119/117 173/144/141
f 173/144/141 108/119/117 109/118/116 174/145/142
f 174/145/142 109/118/116 110/117/115 175/146/143
f 175/146/143 110/117/115 111/116/114 176/147/144
f 176/147/144 111/116/114 112/115/113 177/148/145
f 177/148/145 112/115/113 113/114/112 178/149/146
f 178/149/146 113/114/112 114/113/111 179/150/147
f 179/150/147 114/113/111 115/112/110 180/151/148
f 180/151/148 115/112/110 116/111/109 181/152/149
f 181/152/149 116/111/109 117/110/108 182/153/150
f 182/153/150 117/110/108 118/109/107 183/154/151
f 183/154/151 118/109/107 119/108/106 184/155/152
f 184/155/152 119/108/106 120/107/105 185/156/153
f 185/156/153 120/107/105 121/106/104 186/157/154
f 186/157/154 121/106/104 122/105/103 187/158/155
f 187/158/155 122/105/103 123/104/102 188/159/156
f 188/159/156 123/104/102 124/103/101 189/160/157
f 189/160/157 124/103/101 125/102/100 190/161/158
f 190/161/158 125/102/100 126/101/99 191/162/159
f 191/162/159 126/101/99 127/99/97 192/163/160
f 192/163/160 127/99/97 128/100/98 161/164/129
f 63/165/96 159/166/161 160/167/162 1/168/65
f 61/169/95 158/170/163 159/166/161 63/165/96
f 59/171/94 157/172/164 158/170/163 61/169/95
f 57/173/93 156/174/165 157/172/164 59/171/94
f 55/175/92 155/176/166 156/174/165 57/173/93
f 53/177/91 154/178/167 155/176/166 55/175/92
f 51/179/90 153/180/168 154/178/167 53/177/91
f 49/181/89 152/182/169 153/180/168 51/179/90
f 47/183/88 151/184/170 152/182/169 49/181/89
f 45/185/87 150/186/171 151/184/170 47/183/88
f 43/187/86 149/188/172 150/186/171 45/185/87
f 41/189/85 148/190/173 149/188/172 43/187/86
f 39/191/84 147/192/174 148/190/173 41/189/85
f 37/193/83 146/194/175 147/192/174 39/191/84
f 35/195/82 145/196/176 146/194/175 37/193/83
f 33/197/81 144/198/177 145/196/176 35/195/82
f 31/199/80 143/200/178 144/198/177 33/197/81
f 29/201/79 142/202/179 143/200/178 31/199/80
f 27/203/78 141/204/180 142/202/179 29/201/79
f 25/205/77 140/206/181 141/204/180 27/203/78
f 23/207/76 139/208/182 140/206/181 25/205/77
f 21/209/75 138/210/183 139/208/182 23/207/76
f 19/211/74 137/212/184 138/210/183 21/209/75
f 17/213/73 136/214/185 137/212/184 19/211/74
f 15/215/72 135/216/186 136/214/185 17/213/73
f 13/217/71 134/218/187 135/216/186 15/215/72
f 11/219/70 133/220/188 134/218/187 13/217/71
f 9/221/69 132/222/189 133/220/188 11/219/70
f 7/223/68 131/224/190 132/222/189 9/221/69
f 5/225/67 130/226/191 131/224/190 7/223/68
f 3/227/66 129/228/192 130/226/191 5/225/67
f 1/229/65 160/230/162 129/228/192 3/227/66
f 159/166/161 192/163/160 161/164/129 160/167/162
f 158/170/163 191/162/159 192/163/160 159/166/161
f 157/172/164 190/161/158 191/162/159 158/170/163
f 156/174/165 189/160/157 190/161/158 157/172/164
f 155/176/166 188/159/156 189/160/157 156/174/165
f 154/178/167 187/158/155 188/159/156 155/176/166
f 153/180/168 186/157/154 187/158/155 154/178/167
f 152/182/169 185/156/153 186/157/154 153/180/168
f 151/184/170 184/155/152 185/156/153 152/182/169
f 150/186/171 183/154/151 184/155/152 151/184/170
f 149/188/172 182/153/150 183/154/151 150/186/171
f 148/190/173 181/152/149 182/153/150 149/188/172
f 147/192/174 180/151/148 181/152/149 148/190/173
f 146/194/175 179/150/147 180/151/148 147/192/174
f 145/196/176 178/149/146 179/150/147 146/194/175
f 144/198/177 177/148/145 178/149/146 145/196/176
f 143/200/178 176/147/144 177/148/145 144/198/177
f 142/202/179 175/146/143 176/147/144 143/200/178
f 141/204/180 174/145/142 175/146/143 142/202/179
f 140/206/181 173/144/141 174/145/142 141/204/180
f 139/208/182 172/143/140 173/144/141 140/206/181
f 138/210/183 171/142/139 172/143/140 139/208/182
f 137/212/184 170/141/138 171/142/139 138/210/183
f 136/214/185 169/140/137 170/141/138 137/212/184
f 135/216/186 168/139/136 169/140/137 136/214/185
f 134/218/187 167/138/135 168/139/136 135/216/186
f 133/220/188 166/137/134 167/138/135 134/218/187
f 132/222/189 165/136/133 166/137/134 133/220/188
f 131/224/190 164/135/132 165/136/133 132/222/189
f 130/226/191 163/134/131 164/135/132 131/224/190
f 129/228/192 162/133/130 163/134/131 130/226/191
f 160/230/162 161/131/129 162/133/130 129/228/192
f 128/132/98 65/1/1 66/4/4 97/130/128
