# Blender v2.91.2 OBJ File: 'bochok.blend'
# www.blender.org
mtllib bochok.mtl
o Цилиндр
v 0.431080 0.010000 -0.902314
v 0.355409 3.010000 -0.800674
v 0.598830 0.010000 -0.800876
v 0.523158 3.010000 -0.699237
v 0.743567 0.010000 -0.668662
v 0.667895 3.010000 -0.567023
v 0.859729 0.010000 -0.510751
v 0.784057 3.010000 -0.409112
v 0.942852 0.010000 -0.333213
v 0.867181 3.010000 -0.231573
v 0.989742 0.010000 -0.142869
v 0.914070 3.010000 -0.041229
v 0.998596 0.010000 0.052966
v 0.922925 3.010000 0.154605
v 0.969076 0.010000 0.246764
v 0.893404 3.010000 0.348403
v 0.902314 0.010000 0.431080
v 0.826643 3.010000 0.532719
v 0.800877 0.010000 0.598830
v 0.725205 3.010000 0.700469
v 0.668662 0.010000 0.743566
v 0.592991 3.010000 0.845206
v 0.510751 0.010000 0.859729
v 0.435080 3.010000 0.961368
v 0.333213 0.010000 0.942852
v 0.257541 3.010000 1.044491
v 0.142869 0.010000 0.989742
v 0.067197 3.010000 1.091381
v -0.052966 0.010000 0.998596
v -0.128637 3.010000 1.100236
v -0.246765 0.010000 0.969075
v -0.322436 3.010000 1.070715
v -0.431080 0.010000 0.902314
v -0.506751 3.010000 1.003953
v -0.598830 0.010000 0.800876
v -0.674501 3.010000 0.902515
v -0.743567 0.010000 0.668662
v -0.819238 3.010000 0.770301
v -0.859729 0.010000 0.510751
v -0.935400 3.010000 0.612390
v -0.942852 0.010000 0.333212
v -1.018523 3.010000 0.434851
v -0.989742 0.010000 0.142868
v -1.065413 3.010000 0.244507
v -0.998596 0.010000 -0.052966
v -1.074268 3.010000 0.048673
v -0.969075 0.010000 -0.246765
v -1.044747 3.010000 -0.145126
v -0.902313 0.010000 -0.431081
v -0.977984 3.010000 -0.329442
v -0.800876 0.010000 -0.598830
v -0.876547 3.010000 -0.497191
v -0.668661 0.010000 -0.743567
v -0.744332 3.010000 -0.641928
v -0.510750 0.010000 -0.859729
v -0.586421 3.010000 -0.758090
v -0.333211 0.010000 -0.942852
v -0.408882 3.010000 -0.841213
v -0.142867 0.010000 -0.989742
v -0.218539 3.010000 -0.888103
v 0.052967 0.010000 -0.998596
v -0.022704 3.010000 -0.896957
v 0.246766 0.010000 -0.969075
v 0.171095 3.010000 -0.867436
v 0.514955 0.010000 -0.851595
v 0.439284 3.010000 -0.749956
v 0.419788 1.510000 -0.907053
v 0.587537 1.510000 -0.805616
v 0.671198 0.010000 -0.734769
v 0.595527 3.010000 -0.633130
v 0.732274 1.510000 -0.673402
v 0.801648 0.010000 -0.589707
v 0.725976 3.010000 -0.488067
v 0.848436 1.510000 -0.515491
v 0.901290 0.010000 -0.421982
v 0.825619 3.010000 -0.320343
v 0.931560 1.510000 -0.337952
v 0.966297 0.010000 -0.238041
v 0.890625 3.010000 -0.136401
v 0.978450 1.510000 -0.147608
v 0.994169 0.010000 -0.044952
v 0.918498 3.010000 0.056688
v 0.987304 1.510000 0.048226
v 0.983836 0.010000 0.149865
v 0.908165 3.010000 0.251504
v 0.957783 1.510000 0.242025
v 0.935695 0.010000 0.338922
v 0.860023 3.010000 0.440561
v 0.891022 1.510000 0.426340
v 0.851595 0.010000 0.514955
v 0.775924 3.010000 0.616594
v 0.789584 1.510000 0.594090
v 0.734769 0.010000 0.671198
v 0.659098 3.010000 0.772837
v 0.630826 1.510000 0.794386
v 0.589707 0.010000 0.801647
v 0.514035 3.010000 0.903287
v 0.472916 1.510000 0.910548
v 0.421982 0.010000 0.901290
v 0.346311 3.010000 1.002929
v 0.295377 1.510000 0.993671
v 0.238041 0.010000 0.966297
v 0.162369 3.010000 1.067936
v 0.105033 1.510000 1.040561
v 0.044951 0.010000 0.994169
v -0.030720 3.010000 1.095808
v -0.090801 1.510000 1.049416
v -0.149865 0.010000 0.983836
v -0.225536 3.010000 1.085475
v -0.284600 1.510000 1.019895
v -0.338922 0.010000 0.935695
v -0.414594 3.010000 1.037334
v -0.468916 1.510000 0.953133
v -0.514955 0.010000 0.851595
v -0.590626 3.010000 0.953234
v -0.636666 1.510000 0.851696
v -0.671198 0.010000 0.734769
v -0.746870 3.010000 0.836408
v -0.781402 1.510000 0.719481
v -0.801648 0.010000 0.589706
v -0.877319 3.010000 0.691345
v -0.897564 1.510000 0.561570
v -0.901290 0.010000 0.421981
v -0.976962 3.010000 0.523621
v -0.980688 1.510000 0.384032
v -0.966297 0.010000 0.238040
v -1.041968 3.010000 0.339679
v -1.027577 1.510000 0.193688
v -0.994169 0.010000 0.044951
v -1.069840 3.010000 0.146590
v -1.036432 1.510000 -0.002147
v -0.983836 0.010000 -0.149866
v -1.059507 3.010000 -0.048227
v -1.006911 1.510000 -0.195946
v -0.935694 0.010000 -0.338923
v -1.011366 3.010000 -0.237284
v -0.940149 1.510000 -0.380261
v -0.851595 0.010000 -0.514956
v -0.927266 3.010000 -0.413316
v -0.812168 1.510000 -0.603570
v -0.734768 0.010000 -0.671199
v -0.810440 3.010000 -0.569560
v -0.679953 1.510000 -0.748307
v -0.589706 0.010000 -0.801648
v -0.665377 3.010000 -0.700009
v -0.522042 1.510000 -0.864469
v -0.421981 0.010000 -0.901291
v -0.497652 3.010000 -0.799652
v -0.344503 1.510000 -0.947592
v -0.238039 0.010000 -0.966297
v -0.313711 3.010000 -0.864658
v -0.154159 1.510000 -0.994482
v -0.044950 0.010000 -0.994169
v -0.120621 3.010000 -0.892530
v 0.041675 1.510000 -1.003336
v 0.149866 0.010000 -0.983836
v 0.074195 3.010000 -0.882196
v 0.235474 1.510000 -0.973815
v 0.338923 0.010000 -0.935694
v 0.263252 3.010000 -0.834055
v 0.327631 1.510000 -0.940434
v 0.138574 1.510000 -0.988575
v -0.056242 1.510000 -0.998909
v -0.249331 1.510000 -0.971037
v -0.433273 1.510000 -0.906030
v -0.600998 1.510000 -0.806388
v -0.746061 1.510000 -0.675939
v -0.889430 1.510000 -0.464136
v -0.973530 1.510000 -0.288103
v -1.021671 1.510000 -0.099046
v -1.032005 1.510000 0.095770
v -1.004132 1.510000 0.288860
v -0.939126 1.510000 0.472801
v -0.839483 1.510000 0.640526
v -0.709034 1.510000 0.785589
v -0.552791 1.510000 0.902415
v -0.376758 1.510000 0.986514
v -0.187701 1.510000 1.034656
v 0.007116 1.510000 1.044989
v 0.200205 1.510000 1.017116
v 0.384146 1.510000 0.952110
v 0.551871 1.510000 0.852467
v 0.696934 1.510000 0.722018
v 0.840303 1.510000 0.510215
v 0.924402 1.510000 0.334182
v 0.972544 1.510000 0.145125
v 0.982877 1.510000 -0.049691
v 0.955005 1.510000 -0.242780
v 0.889998 1.510000 -0.426721
v 0.790355 1.510000 -0.594446
v 0.659906 1.510000 -0.739509
v 0.503663 1.510000 -0.856335
vt 0.984375 0.750000
vt 0.984375 1.000000
vt 0.968750 1.000000
vt 0.968750 0.750000
vt 0.953125 0.750000
vt 0.953125 1.000000
vt 0.937500 1.000000
vt 0.937500 0.750000
vt 0.921875 0.750000
vt 0.921875 1.000000
vt 0.906250 1.000000
vt 0.906250 0.750000
vt 0.890625 0.750000
vt 0.890625 1.000000
vt 0.875000 1.000000
vt 0.875000 0.750000
vt 0.859375 0.750000
vt 0.859375 1.000000
vt 0.843750 1.000000
vt 0.843750 0.750000
vt 0.828125 0.750000
vt 0.828125 1.000000
vt 0.812500 1.000000
vt 0.812500 0.750000
vt 0.796875 0.750000
vt 0.796875 1.000000
vt 0.781250 1.000000
vt 0.781250 0.750000
vt 0.765625 0.750000
vt 0.765625 1.000000
vt 0.750000 1.000000
vt 0.750000 0.750000
vt 0.734375 0.750000
vt 0.734375 1.000000
vt 0.718750 1.000000
vt 0.718750 0.750000
vt 0.703125 0.750000
vt 0.703125 1.000000
vt 0.687500 1.000000
vt 0.687500 0.750000
vt 0.671875 0.750000
vt 0.671875 1.000000
vt 0.656250 1.000000
vt 0.656250 0.750000
vt 0.640625 0.750000
vt 0.640625 1.000000
vt 0.625000 1.000000
vt 0.625000 0.750000
vt 0.609375 0.750000
vt 0.609375 1.000000
vt 0.593750 1.000000
vt 0.593750 0.750000
vt 0.578125 0.750000
vt 0.578125 1.000000
vt 0.562500 1.000000
vt 0.562500 0.750000
vt 0.546875 0.750000
vt 0.546875 1.000000
vt 0.531250 1.000000
vt 0.531250 0.750000
vt 0.515625 0.750000
vt 0.515625 1.000000
vt 0.500000 1.000000
vt 0.500000 0.750000
vt 0.484375 0.750000
vt 0.484375 1.000000
vt 0.468750 1.000000
vt 0.468750 0.750000
vt 0.453125 0.750000
vt 0.453125 1.000000
vt 0.437500 1.000000
vt 0.437500 0.750000
vt 0.421875 0.750000
vt 0.421875 1.000000
vt 0.406250 1.000000
vt 0.406250 0.750000
vt 0.390625 0.750000
vt 0.390625 1.000000
vt 0.375000 1.000000
vt 0.375000 0.750000
vt 0.359375 0.750000
vt 0.359375 1.000000
vt 0.343750 1.000000
vt 0.343750 0.750000
vt 0.328125 0.750000
vt 0.328125 1.000000
vt 0.312500 1.000000
vt 0.312500 0.750000
vt 0.296875 0.750000
vt 0.296875 1.000000
vt 0.281250 1.000000
vt 0.281250 0.750000
vt 0.265625 0.750000
vt 0.265625 1.000000
vt 0.250000 1.000000
vt 0.250000 0.750000
vt 0.234375 0.750000
vt 0.234375 1.000000
vt 0.218750 1.000000
vt 0.218750 0.750000
vt 0.203125 0.750000
vt 0.203125 1.000000
vt 0.187500 1.000000
vt 0.187500 0.750000
vt 0.171875 0.750000
vt 0.171875 1.000000
vt 0.156250 1.000000
vt 0.156250 0.750000
vt 0.140625 0.750000
vt 0.140625 1.000000
vt 0.125000 1.000000
vt 0.125000 0.750000
vt 0.109375 0.750000
vt 0.109375 1.000000
vt 0.093750 1.000000
vt 0.093750 0.750000
vt 0.078125 0.750000
vt 0.078125 1.000000
vt 0.062500 1.000000
vt 0.062500 0.750000
vt 0.046875 0.750000
vt 0.046875 1.000000
vt 0.031250 1.000000
vt 0.031250 0.750000
vt 0.015625 0.750000
vt 0.015625 1.000000
vt 0.000000 1.000000
vt 0.000000 0.750000
vt 0.750000 0.490000
vt 0.773411 0.487694
vt 0.796822 0.485388
vt 0.819333 0.478560
vt 0.841844 0.471731
vt 0.862590 0.460642
vt 0.883337 0.449553
vt 0.901521 0.434629
vt 0.919706 0.419706
vt 0.934629 0.401521
vt 0.949553 0.383337
vt 0.960642 0.362590
vt 0.971731 0.341844
vt 0.978560 0.319333
vt 0.985388 0.296822
vt 0.987694 0.273411
vt 0.990000 0.250000
vt 0.987694 0.226589
vt 0.985388 0.203178
vt 0.978560 0.180667
vt 0.971731 0.158156
vt 0.960642 0.137410
vt 0.949553 0.116663
vt 0.934629 0.098479
vt 0.919706 0.080294
vt 0.901521 0.065371
vt 0.883337 0.050447
vt 0.862590 0.039358
vt 0.841844 0.028269
vt 0.819333 0.021440
vt 0.796822 0.014612
vt 0.773411 0.012306
vt 0.750000 0.010000
vt 0.726589 0.012306
vt 0.703178 0.014612
vt 0.680667 0.021440
vt 0.658156 0.028269
vt 0.637409 0.039358
vt 0.616663 0.050447
vt 0.598479 0.065371
vt 0.580294 0.080294
vt 0.565371 0.098479
vt 0.550447 0.116663
vt 0.539358 0.137410
vt 0.528269 0.158156
vt 0.521440 0.180667
vt 0.514611 0.203179
vt 0.512306 0.226589
vt 0.510000 0.250000
vt 0.512306 0.273411
vt 0.514612 0.296822
vt 0.521440 0.319333
vt 0.528269 0.341844
vt 0.539358 0.362591
vt 0.550447 0.383337
vt 0.565371 0.401521
vt 0.580295 0.419706
vt 0.598479 0.434629
vt 0.616663 0.449553
vt 0.637410 0.460642
vt 0.658156 0.471731
vt 0.680668 0.478560
vt 0.703179 0.485389
vt 0.726589 0.487694
vt 0.015625 0.500000
vt 0.000000 0.500000
vt 0.031250 0.500000
vt 0.046875 0.500000
vt 0.062500 0.500000
vt 0.078125 0.500000
vt 0.093750 0.500000
vt 0.109375 0.500000
vt 0.125000 0.500000
vt 0.140625 0.500000
vt 0.156250 0.500000
vt 0.171875 0.500000
vt 0.187500 0.500000
vt 0.203125 0.500000
vt 0.218750 0.500000
vt 0.234375 0.500000
vt 0.250000 0.500000
vt 0.265625 0.500000
vt 0.281250 0.500000
vt 0.296875 0.500000
vt 0.312500 0.500000
vt 0.328125 0.500000
vt 0.343750 0.500000
vt 0.359375 0.500000
vt 0.375000 0.500000
vt 0.390625 0.500000
vt 0.406250 0.500000
vt 0.421875 0.500000
vt 0.437500 0.500000
vt 0.453125 0.500000
vt 0.468750 0.500000
vt 0.484375 0.500000
vt 0.500000 0.500000
vt 0.515625 0.500000
vt 0.531250 0.500000
vt 0.546875 0.500000
vt 0.562500 0.500000
vt 0.578125 0.500000
vt 0.593750 0.500000
vt 0.609375 0.500000
vt 0.625000 0.500000
vt 0.640625 0.500000
vt 0.656250 0.500000
vt 0.671875 0.500000
vt 0.687500 0.500000
vt 0.703125 0.500000
vt 0.718750 0.500000
vt 0.734375 0.500000
vt 0.750000 0.500000
vt 0.765625 0.500000
vt 0.781250 0.500000
vt 0.796875 0.500000
vt 0.812500 0.500000
vt 0.828125 0.500000
vt 0.843750 0.500000
vt 0.859375 0.500000
vt 0.875000 0.500000
vt 0.890625 0.500000
vt 0.906250 0.500000
vt 0.921875 0.500000
vt 0.937500 0.500000
vt 0.953125 0.500000
vt 0.968750 0.500000
vt 0.984375 0.500000
vt 1.000000 0.500000
vt 1.000000 0.750000
vt 1.000000 1.000000
vt 0.296822 0.485388
vt 0.273411 0.487694
vt 0.250000 0.490000
vt 0.226589 0.487694
vt 0.203179 0.485389
vt 0.180667 0.478560
vt 0.158156 0.471731
vt 0.137410 0.460642
vt 0.116663 0.449553
vt 0.098479 0.434629
vt 0.080295 0.419706
vt 0.065371 0.401521
vt 0.050447 0.383337
vt 0.039358 0.362591
vt 0.028269 0.341844
vt 0.021440 0.319333
vt 0.014612 0.296822
vt 0.012306 0.273411
vt 0.010000 0.250000
vt 0.012306 0.226589
vt 0.014611 0.203179
vt 0.021440 0.180667
vt 0.028269 0.158156
vt 0.039358 0.137410
vt 0.050447 0.116663
vt 0.065371 0.098479
vt 0.080294 0.080294
vt 0.098479 0.065371
vt 0.116663 0.050447
vt 0.137409 0.039358
vt 0.158156 0.028269
vt 0.180667 0.021440
vt 0.203178 0.014612
vt 0.226589 0.012306
vt 0.250000 0.010000
vt 0.273411 0.012306
vt 0.296822 0.014612
vt 0.319333 0.021440
vt 0.341844 0.028269
vt 0.362590 0.039358
vt 0.383337 0.050447
vt 0.401521 0.065371
vt 0.419706 0.080294
vt 0.434629 0.098479
vt 0.449553 0.116663
vt 0.460642 0.137410
vt 0.471731 0.158156
vt 0.478560 0.180667
vt 0.485388 0.203178
vt 0.487694 0.226589
vt 0.490000 0.250000
vt 0.487694 0.273411
vt 0.485388 0.296822
vt 0.478560 0.319333
vt 0.471731 0.341844
vt 0.460642 0.362590
vt 0.449553 0.383337
vt 0.434629 0.401521
vt 0.419706 0.419706
vt 0.401521 0.434629
vt 0.383337 0.449553
vt 0.362590 0.460642
vt 0.341844 0.471731
vt 0.319333 0.478560
vn 0.5170 0.0419 -0.8549
vn 0.3504 0.7357 -0.5796
vn 0.4189 0.7150 -0.5596
vn 0.5979 0.0420 -0.8004
vn 0.6738 0.0419 -0.7377
vn 0.4572 0.7352 -0.5005
vn 0.5213 0.7139 -0.4674
vn 0.7423 0.0412 -0.6688
vn 0.8049 0.0403 -0.5921
vn 0.5474 0.7336 -0.4027
vn 0.6048 0.7117 -0.3573
vn 0.8583 0.0389 -0.5116
vn 0.9050 0.0371 -0.4237
vn 0.6180 0.7310 -0.2893
vn 0.6661 0.7085 -0.2329
vn 0.9416 0.0350 -0.3347
vn 0.9704 0.0325 -0.2391
vn 0.6662 0.7275 -0.1641
vn 0.7028 0.7045 -0.0986
vn 0.9890 0.0298 -0.1449
vn 0.9986 0.0267 -0.0451
vn 0.6899 0.7232 -0.0312
vn 0.7133 0.6996 0.0411
vn 0.9984 0.0235 0.0506
vn 0.9884 0.0198 0.1505
vn 0.6879 0.7182 0.1048
vn 0.6966 0.6942 0.1810
vn 0.9695 0.0163 0.2443
vn 0.9401 0.0121 0.3405
vn 0.6594 0.7128 0.2389
vn 0.6528 0.6885 0.3160
vn 0.9034 0.0084 0.4288
vn 0.8557 0.0040 0.5174
vn 0.6051 0.7071 0.3659
vn 0.5980 0.6836 0.4183
vn 0.8223 0.0015 0.5691
vn 0.7614 -0.0028 0.6482
vn 0.5392 0.7055 0.4599
vn 0.4872 0.6826 0.5446
vn 0.6686 -0.0083 0.7435
vn 0.5925 -0.0123 0.8054
vn 0.4216 0.7027 0.5731
vn 0.3731 0.6797 0.6315
vn 0.5107 -0.0162 0.8596
vn 0.4239 -0.0200 0.9055
vn 0.3028 0.7000 0.6467
vn 0.2437 0.6771 0.6944
vn 0.3331 -0.0235 0.9426
vn 0.2391 -0.0268 0.9706
vn 0.1714 0.6975 0.6958
vn 0.1041 0.6747 0.7306
vn 0.1428 -0.0299 0.9893
vn 0.0451 -0.0327 0.9984
vn 0.0324 0.6954 0.7179
vn -0.0403 0.6728 0.7387
vn -0.0529 -0.0351 0.9980
vn -0.1505 -0.0373 0.9879
vn -0.1084 0.6938 0.7119
vn -0.1836 0.6714 0.7180
vn -0.2466 -0.0390 0.9683
vn -0.3403 -0.0404 0.9395
vn -0.2456 0.6926 0.6781
vn -0.3201 0.6705 0.6692
vn -0.4307 -0.0414 0.9015
vn -0.5170 -0.0420 0.8549
vn -0.3735 0.6921 0.6176
vn -0.4444 0.6702 0.5943
vn -0.5983 -0.0422 0.8001
vn -0.6738 -0.0420 0.7377
vn -0.4868 0.6921 0.5329
vn -0.5513 0.6705 0.4963
vn -0.7429 -0.0414 0.6681
vn -0.8049 -0.0403 0.5921
vn -0.5810 0.6927 0.4274
vn -0.6367 0.6714 0.3791
vn -0.8591 -0.0389 0.5103
vn -0.9050 -0.0372 0.4237
vn -0.6522 0.6938 0.3054
vn -0.6971 0.6728 0.2475
vn -0.9423 -0.0350 0.3330
vn -0.9704 -0.0326 0.2391
vn -0.6977 0.6955 0.1718
vn -0.7302 0.6748 0.1068
vn -0.9893 -0.0298 0.1428
vn -0.9986 -0.0267 0.0451
vn -0.7158 0.6976 0.0323
vn -0.7349 0.6771 -0.0374
vn -0.9983 -0.0234 -0.0529
vn -0.9884 -0.0198 -0.1505
vn -0.7059 0.7000 -0.1075
vn -0.7111 0.6798 -0.1792
vn -0.9689 -0.0161 -0.2467
vn -0.9401 -0.0121 -0.3405
vn -0.6689 0.7027 -0.2423
vn -0.6601 0.6827 -0.3133
vn -0.9023 -0.0081 -0.4310
vn -0.8617 -0.0045 -0.5074
vn -0.6103 0.7058 -0.3596
vn -0.5885 0.6882 -0.4242
vn -0.8062 -0.0001 -0.5917
vn -0.7383 0.0042 -0.6744
vn -0.5179 0.7127 -0.4731
vn -0.4839 0.6942 -0.5328
vn -0.6669 0.0085 -0.7451
vn -0.5925 0.0123 -0.8054
vn -0.4123 0.7182 -0.5605
vn -0.3677 0.6996 -0.6126
vn -0.5088 0.0164 -0.8607
vn -0.4239 0.0200 -0.9055
vn -0.2928 0.7232 -0.6255
vn -0.2392 0.7044 -0.6682
vn -0.3314 0.0236 -0.9432
vn -0.2391 0.0268 -0.9706
vn -0.1641 0.7275 -0.6662
vn -0.1031 0.7085 -0.6981
vn -0.1414 0.0299 -0.9895
vn -0.0451 0.0326 -0.9984
vn -0.0308 0.7310 -0.6817
vn 0.0355 0.7117 -0.7015
vn 0.0539 0.0350 -0.9979
vn 0.1505 0.0372 -0.9879
vn 0.1023 0.7336 -0.6718
vn 0.1718 0.7139 -0.6788
vn 0.2470 0.0389 -0.9682
vn 0.3403 0.0403 -0.9395
vn 0.2308 0.7352 -0.6373
vn 0.3010 0.7150 -0.6309
vn 0.4307 0.0412 -0.9015
vn 0.3142 -0.6855 -0.6567
vn 0.3661 -0.7067 -0.6054
vn 0.4366 -0.6850 -0.5833
vn 0.4776 -0.7061 -0.5228
vn 0.5423 -0.6844 -0.4872
vn 0.5708 -0.7056 -0.4199
vn 0.6273 -0.6839 -0.3724
vn 0.6422 -0.7051 -0.3006
vn 0.6883 -0.6835 -0.2430
vn 0.6888 -0.7048 -0.1697
vn 0.7228 -0.6831 -0.1041
vn 0.7090 -0.7044 -0.0320
vn 0.7295 -0.6829 0.0388
vn 0.7018 -0.7042 0.1069
vn 0.7080 -0.6828 0.1803
vn 0.6676 -0.7042 0.2418
vn 0.6593 -0.6827 0.3150
vn 0.6075 -0.7042 0.3674
vn 0.6002 -0.6826 0.4168
vn 0.5386 -0.7074 0.4576
vn 0.4862 -0.6887 0.5379
vn 0.4164 -0.7114 0.5661
vn 0.3704 -0.6915 0.6201
vn 0.2968 -0.7141 0.6340
vn 0.2413 -0.6941 0.6781
vn 0.1668 -0.7165 0.6773
vn 0.1038 -0.6965 0.7100
vn 0.0314 -0.7186 0.6947
vn -0.0368 -0.6983 0.7148
vn -0.1045 -0.7201 0.6859
vn -0.1756 -0.6997 0.6925
vn -0.2359 -0.7212 0.6513
vn -0.3073 -0.7006 0.6440
vn -0.3581 -0.7218 0.5922
vn -0.4271 -0.7009 0.5712
vn -0.4668 -0.7218 0.5110
vn -0.5308 -0.7006 0.4769
vn -0.5580 -0.7212 0.4104
vn -0.6146 -0.6997 0.3642
vn -0.6283 -0.7201 0.2942
vn -0.6752 -0.6983 0.2375
vn -0.6753 -0.7185 0.1663
vn -0.7104 -0.6964 0.1012
vn -0.6969 -0.7165 0.0315
vn -0.7187 -0.6941 -0.0397
vn -0.6921 -0.7141 -0.1054
vn -0.6996 -0.6915 -0.1800
vn -0.6608 -0.7114 -0.2394
vn -0.6535 -0.6886 -0.3143
vn -0.6078 -0.7090 -0.3576
vn -0.5856 -0.6887 -0.4274
vn -0.5201 -0.7097 -0.4751
vn -0.4849 -0.6883 -0.5394
vn -0.4175 -0.7096 -0.5676
vn -0.3704 -0.6881 -0.6240
vn -0.2989 -0.7092 -0.6384
vn -0.2416 -0.6877 -0.6846
vn -0.1687 -0.7088 -0.6849
vn -0.1035 -0.6872 -0.7190
vn -0.0319 -0.7083 -0.7051
vn 0.0389 -0.6867 -0.7259
vn 0.1064 -0.7078 -0.6984
vn 0.1798 -0.6861 -0.7049
vn 0.2408 -0.7072 -0.6647
usemtl Материал
s 1
f 192/1/1 66/2/2 4/3/3 68/4/4
f 191/5/5 70/6/6 6/7/7 71/8/8
f 190/9/9 73/10/10 8/11/11 74/12/12
f 189/13/13 76/14/14 10/15/15 77/16/16
f 188/17/17 79/18/18 12/19/19 80/20/20
f 187/21/21 82/22/22 14/23/23 83/24/24
f 186/25/25 85/26/26 16/27/27 86/28/28
f 185/29/29 88/30/30 18/31/31 89/32/32
f 184/33/33 91/34/34 20/35/35 92/36/36
f 183/37/37 94/38/38 22/39/39 95/40/40
f 182/41/41 97/42/42 24/43/43 98/44/44
f 181/45/45 100/46/46 26/47/47 101/48/48
f 180/49/49 103/50/50 28/51/51 104/52/52
f 179/53/53 106/54/54 30/55/55 107/56/56
f 178/57/57 109/58/58 32/59/59 110/60/60
f 177/61/61 112/62/62 34/63/63 113/64/64
f 176/65/65 115/66/66 36/67/67 116/68/68
f 175/69/69 118/70/70 38/71/71 119/72/72
f 174/73/73 121/74/74 40/75/75 122/76/76
f 173/77/77 124/78/78 42/79/79 125/80/80
f 172/81/81 127/82/82 44/83/83 128/84/84
f 171/85/85 130/86/86 46/87/87 131/88/88
f 170/89/89 133/90/90 48/91/91 134/92/92
f 169/93/93 136/94/94 50/95/95 137/96/96
f 168/97/97 139/98/98 52/99/99 140/100/100
f 167/101/101 142/102/102 54/103/103 143/104/104
f 166/105/105 145/106/106 56/107/107 146/108/108
f 165/109/109 148/110/110 58/111/111 149/112/112
f 164/113/113 151/114/114 60/115/115 152/116/116
f 163/117/117 154/118/118 62/119/119 155/120/120
f 162/121/121 157/122/122 64/123/123 158/124/124
f 161/125/125 160/126/126 2/127/127 67/128/128
f 1/129/129 65/130/130 3/131/131 69/132/132 5/133/133 72/134/134 7/135/135 75/136/136 9/137/137 78/138/138 11/139/139 81/140/140 13/141/141 84/142/142 15/143/143 87/144/144 17/145/145 90/146/146 19/147/147 93/148/148 21/149/149 96/150/150 23/151/151 99/152/152 25/153/153 102/154/154 27/155/155 105/156/156 29/157/157 108/158/158 31/159/159 111/160/160 33/161/161 114/162/162 35/163/163 117/164/164 37/165/165 120/166/166 39/167/167 123/168/168 41/169/169 126/170/170 43/171/171 129/172/172 45/173/173 132/174/174 47/175/175 135/176/176 49/177/177 138/178/178 51/179/179 141/180/180 53/181/181 144/182/182 55/183/183 147/184/184 57/185/185 150/186/186 59/187/187 153/188/188 61/189/189 156/190/190 63/191/191 159/192/192
f 159/193/192 161/125/125 67/128/128 1/194/129
f 63/195/191 158/124/124 161/125/125 159/193/192
f 158/124/124 64/123/123 160/126/126 161/125/125
f 156/196/190 162/121/121 158/124/124 63/195/191
f 61/197/189 155/120/120 162/121/121 156/196/190
f 155/120/120 62/119/119 157/122/122 162/121/121
f 153/198/188 163/117/117 155/120/120 61/197/189
f 59/199/187 152/116/116 163/117/117 153/198/188
f 152/116/116 60/115/115 154/118/118 163/117/117
f 150/200/186 164/113/113 152/116/116 59/199/187
f 57/201/185 149/112/112 164/113/113 150/200/186
f 149/112/112 58/111/111 151/114/114 164/113/113
f 147/202/184 165/109/109 149/112/112 57/201/185
f 55/203/183 146/108/108 165/109/109 147/202/184
f 146/108/108 56/107/107 148/110/110 165/109/109
f 144/204/182 166/105/105 146/108/108 55/203/183
f 53/205/181 143/104/104 166/105/105 144/204/182
f 143/104/104 54/103/103 145/106/106 166/105/105
f 141/206/180 167/101/101 143/104/104 53/205/181
f 51/207/179 140/100/100 167/101/101 141/206/180
f 140/100/100 52/99/99 142/102/102 167/101/101
f 138/208/178 168/97/97 140/100/100 51/207/179
f 49/209/177 137/96/96 168/97/97 138/208/178
f 137/96/96 50/95/95 139/98/98 168/97/97
f 135/210/176 169/93/93 137/96/96 49/209/177
f 47/211/175 134/92/92 169/93/93 135/210/176
f 134/92/92 48/91/91 136/94/94 169/93/93
f 132/212/174 170/89/89 134/92/92 47/211/175
f 45/213/173 131/88/88 170/89/89 132/212/174
f 131/88/88 46/87/87 133/90/90 170/89/89
f 129/214/172 171/85/85 131/88/88 45/213/173
f 43/215/171 128/84/84 171/85/85 129/214/172
f 128/84/84 44/83/83 130/86/86 171/85/85
f 126/216/170 172/81/81 128/84/84 43/215/171
f 41/217/169 125/80/80 172/81/81 126/216/170
f 125/80/80 42/79/79 127/82/82 172/81/81
f 123/218/168 173/77/77 125/80/80 41/217/169
f 39/219/167 122/76/76 173/77/77 123/218/168
f 122/76/76 40/75/75 124/78/78 173/77/77
f 120/220/166 174/73/73 122/76/76 39/219/167
f 37/221/165 119/72/72 174/73/73 120/220/166
f 119/72/72 38/71/71 121/74/74 174/73/73
f 117/222/164 175/69/69 119/72/72 37/221/165
f 35/223/163 116/68/68 175/69/69 117/222/164
f 116/68/68 36/67/67 118/70/70 175/69/69
f 114/224/162 176/65/65 116/68/68 35/223/163
f 33/225/161 113/64/64 176/65/65 114/224/162
f 113/64/64 34/63/63 115/66/66 176/65/65
f 111/226/160 177/61/61 113/64/64 33/225/161
f 31/227/159 110/60/60 177/61/61 111/226/160
f 110/60/60 32/59/59 112/62/62 177/61/61
f 108/228/158 178/57/57 110/60/60 31/227/159
f 29/229/157 107/56/56 178/57/57 108/228/158
f 107/56/56 30/55/55 109/58/58 178/57/57
f 105/230/156 179/53/53 107/56/56 29/229/157
f 27/231/155 104/52/52 179/53/53 105/230/156
f 104/52/52 28/51/51 106/54/54 179/53/53
f 102/232/154 180/49/49 104/52/52 27/231/155
f 25/233/153 101/48/48 180/49/49 102/232/154
f 101/48/48 26/47/47 103/50/50 180/49/49
f 99/234/152 181/45/45 101/48/48 25/233/153
f 23/235/151 98/44/44 181/45/45 99/234/152
f 98/44/44 24/43/43 100/46/46 181/45/45
f 96/236/150 182/41/41 98/44/44 23/235/151
f 21/237/149 95/40/40 182/41/41 96/236/150
f 95/40/40 22/39/39 97/42/42 182/41/41
f 93/238/148 183/37/37 95/40/40 21/237/149
f 19/239/147 92/36/36 183/37/37 93/238/148
f 92/36/36 20/35/35 94/38/38 183/37/37
f 90/240/146 184/33/33 92/36/36 19/239/147
f 17/241/145 89/32/32 184/33/33 90/240/146
f 89/32/32 18/31/31 91/34/34 184/33/33
f 87/242/144 185/29/29 89/32/32 17/241/145
f 15/243/143 86/28/28 185/29/29 87/242/144
f 86/28/28 16/27/27 88/30/30 185/29/29
f 84/244/142 186/25/25 86/28/28 15/243/143
f 13/245/141 83/24/24 186/25/25 84/244/142
f 83/24/24 14/23/23 85/26/26 186/25/25
f 81/246/140 187/21/21 83/24/24 13/245/141
f 11/247/139 80/20/20 187/21/21 81/246/140
f 80/20/20 12/19/19 82/22/22 187/21/21
f 78/248/138 188/17/17 80/20/20 11/247/139
f 9/249/137 77/16/16 188/17/17 78/248/138
f 77/16/16 10/15/15 79/18/18 188/17/17
f 75/250/136 189/13/13 77/16/16 9/249/137
f 7/251/135 74/12/12 189/13/13 75/250/136
f 74/12/12 8/11/11 76/14/14 189/13/13
f 72/252/134 190/9/9 74/12/12 7/251/135
f 5/253/133 71/8/8 190/9/9 72/252/134
f 71/8/8 6/7/7 73/10/10 190/9/9
f 69/254/132 191/5/5 71/8/8 5/253/133
f 3/255/131 68/4/4 191/5/5 69/254/132
f 68/4/4 4/3/3 70/6/6 191/5/5
f 65/256/130 192/1/1 68/4/4 3/255/131
f 1/257/129 67/258/128 192/1/1 65/256/130
f 67/258/128 2/259/127 66/2/2 192/1/1
usemtl Материал.001
f 4/260/3 66/261/2 2/262/127 160/263/126 64/264/123 157/265/122 62/266/119 154/267/118 60/268/115 151/269/114 58/270/111 148/271/110 56/272/107 145/273/106 54/274/103 142/275/102 52/276/99 139/277/98 50/278/95 136/279/94 48/280/91 133/281/90 46/282/87 130/283/86 44/284/83 127/285/82 42/286/79 124/287/78 40/288/75 121/289/74 38/290/71 118/291/70 36/292/67 115/293/66 34/294/63 112/295/62 32/296/59 109/297/58 30/298/55 106/299/54 28/300/51 103/301/50 26/302/47 100/303/46 24/304/43 97/305/42 22/306/39 94/307/38 20/308/35 91/309/34 18/310/31 88/311/30 16/312/27 85/313/26 14/314/23 82/315/22 12/316/19 79/317/18 10/318/15 76/319/14 8/320/11 73/321/10 6/322/7 70/323/6
