# MagicaVoxel @ Ephtracy

# group
o 

# material
mtllib hamster3020.mtl
usemtl palette

# normals
vn -1 0 0
vn 1 0 0
vn 0 0 1
vn 0 0 -1
vn 0 -1 0
vn 0 1 0

# texcoords
vt 0.0957031 0.5
vt 0.138672 0.5
vt 0.365234 0.5
vt 0.533203 0.5
vt 0.876953 0.5
vt 0.958984 0.5

# verts
v -2.7 3.1 0.9
v -2.7 3.1 -0.9
v -2.7 3.2 0.5
v -2.7 3.2 -0.5
v -2.7 3.3 0.3
v -2.7 3.3 -0.3
v -2.7 3.9 0.8
v -2.7 3.9 0.5
v -2.7 3.9 0.3
v -2.7 3.9 -0.3
v -2.7 3.9 -0.5
v -2.7 3.9 -0.8
v -2.7 4.1 0.7
v -2.7 4.1 0.4
v -2.7 4.1 0.0999999
v -2.7 4.1 -0.1
v -2.7 4.1 -0.4
v -2.7 4.1 -0.7
v -2.7 4.4 0.7
v -2.7 4.4 0.4
v -2.7 4.4 0.0999999
v -2.7 4.4 -0.1
v -2.7 4.4 -0.4
v -2.7 4.4 -0.7
v -2.7 4.6 0.8
v -2.7 4.6 -0.8
v -2.7 4.7 0.9
v -2.7 4.7 -0.9
v -2.6 3 1
v -2.6 3 -1
v -2.6 3.1 0.9
v -2.6 3.1 -0.9
v -2.6 4.7 1
v -2.6 4.7 0.9
v -2.6 4.7 -0.9
v -2.6 4.7 -1
v -2.6 4.8 0.9
v -2.6 4.8 -0.9
v -2 1.4 1.7
v -2 1.4 -1.7
v -2 3 1
v -2 3 -1
v -2 3.9 1.7
v -2 3.9 1
v -2 3.9 -1
v -2 3.9 -1.7
v -1.9 0.6 1.6
v -1.9 0.6 1.1
v -1.9 0.6 -1.1
v -1.9 0.6 -1.6
v -1.9 1.3 1.7
v -1.9 1.3 1.6
v -1.9 1.3 1.1
v -1.9 1.3 -1.1
v -1.9 1.3 -1.6
v -1.9 1.3 -1.7
v -1.9 1.4 1.8
v -1.9 1.4 1.7
v -1.9 1.4 -1.7
v -1.9 1.4 -1.8
v -1.9 3.9 1.8
v -1.9 3.9 1.7
v -1.9 3.9 1
v -1.9 3.9 -1
v -1.9 3.9 -1.7
v -1.9 3.9 -1.8
v -1.9 4 1.7
v -1.9 4 1
v -1.9 4 -1
v -1.9 4 -1.7
v -1.8 0 1.6
v -1.8 0 1.1
v -1.8 0 -1.1
v -1.8 0 -1.6
v -1.8 0.1 1.6
v -1.8 0.1 1.1
v -1.8 0.1 -1.1
v -1.8 0.1 -1.6
v -1.8 0.6 1.7
v -1.8 0.6 1.6
v -1.8 0.6 1.1
v -1.8 0.6 1
v -1.8 0.6 -1
v -1.8 0.6 -1.1
v -1.8 0.6 -1.6
v -1.8 0.6 -1.7
v -1.8 1.3 1.7
v -1.8 1.3 1.6
v -1.8 1.3 1.1
v -1.8 1.3 1
v -1.8 1.3 -1
v -1.8 1.3 -1.1
v -1.8 1.3 -1.6
v -1.8 1.3 -1.7
v 1.7 0.6 1.6
v 1.7 0.6 1.1
v 1.7 0.6 -1.1
v 1.7 0.6 -1.6
v 1.7 1.3 1.6
v 1.7 1.3 1.1
v 1.7 1.3 -1.1
v 1.7 1.3 -1.6
v 1.8 0 1.6
v 1.8 0 1.1
v 1.8 0 -1.1
v 1.8 0 -1.6
v 1.8 0.1 1.6
v 1.8 0.1 1.1
v 1.8 0.1 -1.1
v 1.8 0.1 -1.6
v 1.8 0.6 1.7
v 1.8 0.6 1.6
v 1.8 0.6 1.1
v 1.8 0.6 1
v 1.8 0.6 -1
v 1.8 0.6 -1.1
v 1.8 0.6 -1.6
v 1.8 0.6 -1.7
v 1.8 1.3 1.7
v 1.8 1.3 1.6
v 1.8 1.3 1.1
v 1.8 1.3 1
v 1.8 1.3 -1
v 1.8 1.3 -1.1
v 1.8 1.3 -1.6
v 1.8 1.3 -1.7
v -1.3 0 1.6
v -1.3 0 1.1
v -1.3 0 -1.1
v -1.3 0 -1.6
v -1.3 0.1 1.6
v -1.3 0.1 1.1
v -1.3 0.1 -1.1
v -1.3 0.1 -1.6
v -1.3 0.6 1.7
v -1.3 0.6 1.6
v -1.3 0.6 1.1
v -1.3 0.6 1
v -1.3 0.6 -1
v -1.3 0.6 -1.1
v -1.3 0.6 -1.6
v -1.3 0.6 -1.7
v -1.3 1.3 1.7
v -1.3 1.3 1.6
v -1.3 1.3 1.1
v -1.3 1.3 1
v -1.3 1.3 -1
v -1.3 1.3 -1.1
v -1.3 1.3 -1.6
v -1.3 1.3 -1.7
v -1.2 0.6 1.6
v -1.2 0.6 1.1
v -1.2 0.6 -1.1
v -1.2 0.6 -1.6
v -1.2 1.3 1.6
v -1.2 1.3 1.1
v -1.2 1.3 -1.1
v -1.2 1.3 -1.6
v -1.1 4 1
v -1.1 4 0.9
v -1.1 4 -0.9
v -1.1 4 -1
v -1.1 4.7 1
v -1.1 4.7 0.9
v -1.1 4.7 -0.9
v -1.1 4.7 -1
v -1.1 4.8 0.9
v -1.1 4.8 -0.9
v -1 4 0.9
v -1 4 -0.9
v -1 4.7 0.9
v -1 4.7 -0.9
v 2.3 0 1.6
v 2.3 0 1.1
v 2.3 0 -1.1
v 2.3 0 -1.6
v 2.3 0.1 1.6
v 2.3 0.1 1.1
v 2.3 0.1 -1.1
v 2.3 0.1 -1.6
v 2.3 0.6 1.7
v 2.3 0.6 1.6
v 2.3 0.6 1.1
v 2.3 0.6 1
v 2.3 0.6 -1
v 2.3 0.6 -1.1
v 2.3 0.6 -1.6
v 2.3 0.6 -1.7
v 2.3 1.3 1.7
v 2.3 1.3 1.6
v 2.3 1.3 1.1
v 2.3 1.3 1
v 2.3 1.3 -1
v 2.3 1.3 -1.1
v 2.3 1.3 -1.6
v 2.3 1.3 -1.7
v 2.4 0.6 1.6
v 2.4 0.6 1.1
v 2.4 0.6 -1.1
v 2.4 0.6 -1.6
v 2.4 1.3 1.7
v 2.4 1.3 1.6
v 2.4 1.3 1.1
v 2.4 1.3 -1.1
v 2.4 1.3 -1.6
v 2.4 1.3 -1.7
v 2.4 1.4 1.8
v 2.4 1.4 1.7
v 2.4 1.4 -1.7
v 2.4 1.4 -1.8
v 2.4 3.9 1.8
v 2.4 3.9 1.7
v 2.4 3.9 -1.7
v 2.4 3.9 -1.8
v 2.4 4 1.7
v 2.4 4 -1.7
v 2.5 1.4 1.7
v 2.5 1.4 -1.7
v 2.5 3.9 1.7
v 2.5 3.9 -1.7
v -1.9 1.4 1.8
v -1.9 3.9 1.8
v 2.4 1.4 1.8
v 2.4 3.9 1.8
v -2 1.4 1.7
v -2 3.9 1.7
v -1.9 1.3 1.7
v -1.9 1.4 1.7
v -1.9 3.9 1.7
v -1.9 4 1.7
v -1.8 0.6 1.7
v -1.8 1.3 1.7
v -1.3 0.6 1.7
v -1.3 1.3 1.7
v 1.8 0.6 1.7
v 1.8 1.3 1.7
v 2.3 0.6 1.7
v 2.3 1.3 1.7
v 2.4 1.3 1.7
v 2.4 1.4 1.7
v 2.4 3.9 1.7
v 2.4 4 1.7
v 2.5 1.4 1.7
v 2.5 3.9 1.7
v -1.9 0.6 1.6
v -1.9 1.3 1.6
v -1.8 0 1.6
v -1.8 0.1 1.6
v -1.8 0.6 1.6
v -1.8 1.3 1.6
v -1.3 0 1.6
v -1.3 0.1 1.6
v -1.3 0.6 1.6
v -1.3 1.3 1.6
v -1.2 0.6 1.6
v -1.2 1.3 1.6
v 1.7 0.6 1.6
v 1.7 1.3 1.6
v 1.8 0 1.6
v 1.8 0.1 1.6
v 1.8 0.6 1.6
v 1.8 1.3 1.6
v 2.3 0 1.6
v 2.3 0.1 1.6
v 2.3 0.6 1.6
v 2.3 1.3 1.6
v 2.4 0.6 1.6
v 2.4 1.3 1.6
v -2.6 3 1
v -2.6 4.7 1
v -2 3 1
v -2 3.9 1
v -1.9 3.9 1
v -1.9 4 1
v -1.1 4 1
v -1.1 4.7 1
v -2.7 3.1 0.9
v -2.7 4.7 0.9
v -2.6 3.1 0.9
v -2.6 4.7 0.9
v -2.6 4.8 0.9
v -1.1 4 0.9
v -1.1 4.7 0.9
v -1.1 4.8 0.9
v -1 4 0.9
v -1 4.7 0.9
v -1.8 0.6 -1
v -1.8 1.3 -1
v -1.3 0.6 -1
v -1.3 1.3 -1
v 1.8 0.6 -1
v 1.8 1.3 -1
v 2.3 0.6 -1
v 2.3 1.3 -1
v -1.9 0.6 -1.1
v -1.9 1.3 -1.1
v -1.8 0 -1.1
v -1.8 0.1 -1.1
v -1.8 0.6 -1.1
v -1.8 1.3 -1.1
v -1.3 0 -1.1
v -1.3 0.1 -1.1
v -1.3 0.6 -1.1
v -1.3 1.3 -1.1
v -1.2 0.6 -1.1
v -1.2 1.3 -1.1
v 1.7 0.6 -1.1
v 1.7 1.3 -1.1
v 1.8 0 -1.1
v 1.8 0.1 -1.1
v 1.8 0.6 -1.1
v 1.8 1.3 -1.1
v 2.3 0 -1.1
v 2.3 0.1 -1.1
v 2.3 0.6 -1.1
v 2.3 1.3 -1.1
v 2.4 0.6 -1.1
v 2.4 1.3 -1.1
v -1.9 0.6 1.1
v -1.9 1.3 1.1
v -1.8 0 1.1
v -1.8 0.1 1.1
v -1.8 0.6 1.1
v -1.8 1.3 1.1
v -1.3 0 1.1
v -1.3 0.1 1.1
v -1.3 0.6 1.1
v -1.3 1.3 1.1
v -1.2 0.6 1.1
v -1.2 1.3 1.1
v 1.7 0.6 1.1
v 1.7 1.3 1.1
v 1.8 0 1.1
v 1.8 0.1 1.1
v 1.8 0.6 1.1
v 1.8 1.3 1.1
v 2.3 0 1.1
v 2.3 0.1 1.1
v 2.3 0.6 1.1
v 2.3 1.3 1.1
v 2.4 0.6 1.1
v 2.4 1.3 1.1
v -1.8 0.6 1
v -1.8 1.3 1
v -1.3 0.6 1
v -1.3 1.3 1
v 1.8 0.6 1
v 1.8 1.3 1
v 2.3 0.6 1
v 2.3 1.3 1
v -2.7 3.1 -0.9
v -2.7 4.7 -0.9
v -2.6 3.1 -0.9
v -2.6 4.7 -0.9
v -2.6 4.8 -0.9
v -1.1 4 -0.9
v -1.1 4.7 -0.9
v -1.1 4.8 -0.9
v -1 4 -0.9
v -1 4.7 -0.9
v -2.6 3 -1
v -2.6 4.7 -1
v -2 3 -1
v -2 3.9 -1
v -1.9 3.9 -1
v -1.9 4 -1
v -1.1 4 -1
v -1.1 4.7 -1
v -1.9 0.6 -1.6
v -1.9 1.3 -1.6
v -1.8 0 -1.6
v -1.8 0.1 -1.6
v -1.8 0.6 -1.6
v -1.8 1.3 -1.6
v -1.3 0 -1.6
v -1.3 0.1 -1.6
v -1.3 0.6 -1.6
v -1.3 1.3 -1.6
v -1.2 0.6 -1.6
v -1.2 1.3 -1.6
v 1.7 0.6 -1.6
v 1.7 1.3 -1.6
v 1.8 0 -1.6
v 1.8 0.1 -1.6
v 1.8 0.6 -1.6
v 1.8 1.3 -1.6
v 2.3 0 -1.6
v 2.3 0.1 -1.6
v 2.3 0.6 -1.6
v 2.3 1.3 -1.6
v 2.4 0.6 -1.6
v 2.4 1.3 -1.6
v -2 1.4 -1.7
v -2 3.9 -1.7
v -1.9 1.3 -1.7
v -1.9 1.4 -1.7
v -1.9 3.9 -1.7
v -1.9 4 -1.7
v -1.8 0.6 -1.7
v -1.8 1.3 -1.7
v -1.3 0.6 -1.7
v -1.3 1.3 -1.7
v 1.8 0.6 -1.7
v 1.8 1.3 -1.7
v 2.3 0.6 -1.7
v 2.3 1.3 -1.7
v 2.4 1.3 -1.7
v 2.4 1.4 -1.7
v 2.4 3.9 -1.7
v 2.4 4 -1.7
v 2.5 1.4 -1.7
v 2.5 3.9 -1.7
v -1.9 1.4 -1.8
v -1.9 3.9 -1.8
v 2.4 1.4 -1.8
v 2.4 3.9 -1.8
v -1.8 0 1.6
v -1.3 0 1.6
v 1.8 0 1.6
v 2.3 0 1.6
v -1.8 0 1.1
v -1.3 0 1.1
v 1.8 0 1.1
v 2.3 0 1.1
v -1.8 0 -1.1
v -1.3 0 -1.1
v 1.8 0 -1.1
v 2.3 0 -1.1
v -1.8 0 -1.6
v -1.3 0 -1.6
v 1.8 0 -1.6
v 2.3 0 -1.6
v -1.8 0.6 1.7
v -1.3 0.6 1.7
v 1.8 0.6 1.7
v 2.3 0.6 1.7
v -1.9 0.6 1.6
v -1.8 0.6 1.6
v -1.3 0.6 1.6
v -1.2 0.6 1.6
v 1.7 0.6 1.6
v 1.8 0.6 1.6
v 2.3 0.6 1.6
v 2.4 0.6 1.6
v -1.9 0.6 1.1
v -1.8 0.6 1.1
v -1.3 0.6 1.1
v -1.2 0.6 1.1
v 1.7 0.6 1.1
v 1.8 0.6 1.1
v 2.3 0.6 1.1
v 2.4 0.6 1.1
v -1.8 0.6 1
v -1.3 0.6 1
v 1.8 0.6 1
v 2.3 0.6 1
v -1.8 0.6 -1
v -1.3 0.6 -1
v 1.8 0.6 -1
v 2.3 0.6 -1
v -1.9 0.6 -1.1
v -1.8 0.6 -1.1
v -1.3 0.6 -1.1
v -1.2 0.6 -1.1
v 1.7 0.6 -1.1
v 1.8 0.6 -1.1
v 2.3 0.6 -1.1
v 2.4 0.6 -1.1
v -1.9 0.6 -1.6
v -1.8 0.6 -1.6
v -1.3 0.6 -1.6
v -1.2 0.6 -1.6
v 1.7 0.6 -1.6
v 1.8 0.6 -1.6
v 2.3 0.6 -1.6
v 2.4 0.6 -1.6
v -1.8 0.6 -1.7
v -1.3 0.6 -1.7
v 1.8 0.6 -1.7
v 2.3 0.6 -1.7
v -1.9 1.3 1.7
v -1.8 1.3 1.7
v -1.3 1.3 1.7
v 1.8 1.3 1.7
v 2.3 1.3 1.7
v 2.4 1.3 1.7
v -1.9 1.3 1.6
v -1.8 1.3 1.6
v -1.3 1.3 1.6
v -1.2 1.3 1.6
v 1.7 1.3 1.6
v 1.8 1.3 1.6
v 2.3 1.3 1.6
v 2.4 1.3 1.6
v -1.9 1.3 1.1
v -1.8 1.3 1.1
v -1.3 1.3 1.1
v -1.2 1.3 1.1
v 1.7 1.3 1.1
v 1.8 1.3 1.1
v 2.3 1.3 1.1
v 2.4 1.3 1.1
v -1.8 1.3 1
v -1.3 1.3 1
v 1.8 1.3 1
v 2.3 1.3 1
v -1.8 1.3 -1
v -1.3 1.3 -1
v 1.8 1.3 -1
v 2.3 1.3 -1
v -1.9 1.3 -1.1
v -1.8 1.3 -1.1
v -1.3 1.3 -1.1
v -1.2 1.3 -1.1
v 1.7 1.3 -1.1
v 1.8 1.3 -1.1
v 2.3 1.3 -1.1
v 2.4 1.3 -1.1
v -1.9 1.3 -1.6
v -1.8 1.3 -1.6
v -1.3 1.3 -1.6
v -1.2 1.3 -1.6
v 1.7 1.3 -1.6
v 1.8 1.3 -1.6
v 2.3 1.3 -1.6
v 2.4 1.3 -1.6
v -1.9 1.3 -1.7
v -1.8 1.3 -1.7
v -1.3 1.3 -1.7
v 1.8 1.3 -1.7
v 2.3 1.3 -1.7
v 2.4 1.3 -1.7
v -1.9 1.4 1.8
v 2.4 1.4 1.8
v -2 1.4 1.7
v -1.9 1.4 1.7
v 2.4 1.4 1.7
v 2.5 1.4 1.7
v -2 1.4 -1.7
v -1.9 1.4 -1.7
v 2.4 1.4 -1.7
v 2.5 1.4 -1.7
v -1.9 1.4 -1.8
v 2.4 1.4 -1.8
v -2.6 3 1
v -2 3 1
v -2.6 3 -1
v -2 3 -1
v -2.7 3.1 0.9
v -2.6 3.1 0.9
v -2.7 3.1 -0.9
v -2.6 3.1 -0.9
v -1.9 3.9 1.8
v 2.4 3.9 1.8
v -2 3.9 1.7
v -1.9 3.9 1.7
v 2.4 3.9 1.7
v 2.5 3.9 1.7
v -2 3.9 1
v -1.9 3.9 1
v -2 3.9 -1
v -1.9 3.9 -1
v -2 3.9 -1.7
v -1.9 3.9 -1.7
v 2.4 3.9 -1.7
v 2.5 3.9 -1.7
v -1.9 3.9 -1.8
v 2.4 3.9 -1.8
v -1.9 4 1.7
v 2.4 4 1.7
v -1.9 4 1
v -1.1 4 1
v -1.1 4 0.9
v -1 4 0.9
v -1.1 4 -0.9
v -1 4 -0.9
v -1.9 4 -1
v -1.1 4 -1
v -1.9 4 -1.7
v 2.4 4 -1.7
v -2.6 4.7 1
v -1.1 4.7 1
v -2.7 4.7 0.9
v -2.6 4.7 0.9
v -1.1 4.7 0.9
v -1 4.7 0.9
v -2.7 4.7 -0.9
v -2.6 4.7 -0.9
v -1.1 4.7 -0.9
v -1 4.7 -0.9
v -2.6 4.7 -1
v -1.1 4.7 -1
v -2.6 4.8 0.9
v -1.1 4.8 0.9
v -2.6 4.8 -0.9
v -1.1 4.8 -0.9

# faces
f 3/2/1 2/2/1 1/2/1
f 4/2/1 2/2/1 3/2/1
f 5/3/1 4/3/1 3/3/1
f 6/3/1 4/3/1 5/3/1
f 7/2/1 3/2/1 1/2/1
f 8/3/1 5/3/1 3/3/1
f 8/2/1 3/2/1 7/2/1
f 9/1/1 6/1/1 5/1/1
f 9/3/1 5/3/1 8/3/1
f 10/3/1 4/3/1 6/3/1
f 10/1/1 6/1/1 9/1/1
f 11/2/1 2/2/1 4/2/1
f 11/3/1 4/3/1 10/3/1
f 12/2/1 2/2/1 11/2/1
f 13/3/1 9/3/1 8/3/1
f 13/3/1 10/3/1 9/3/1
f 13/3/1 12/3/1 11/3/1
f 13/3/1 11/3/1 10/3/1
f 13/3/1 8/3/1 7/3/1
f 14/3/1 12/3/1 13/3/1
f 15/3/1 12/3/1 14/3/1
f 16/3/1 12/3/1 15/3/1
f 17/3/1 12/3/1 16/3/1
f 18/3/1 12/3/1 17/3/1
f 19/3/1 13/3/1 7/3/1
f 19/5/1 14/5/1 13/5/1
f 20/6/1 15/6/1 14/6/1
f 20/5/1 14/5/1 19/5/1
f 21/3/1 16/3/1 15/3/1
f 21/6/1 15/6/1 20/6/1
f 22/6/1 17/6/1 16/6/1
f 22/3/1 16/3/1 21/3/1
f 23/5/1 18/5/1 17/5/1
f 23/6/1 17/6/1 22/6/1
f 24/3/1 12/3/1 18/3/1
f 24/5/1 18/5/1 23/5/1
f 25/2/1 7/2/1 1/2/1
f 25/3/1 23/3/1 22/3/1
f 25/3/1 24/3/1 23/3/1
f 25/3/1 21/3/1 20/3/1
f 25/3/1 20/3/1 19/3/1
f 25/3/1 19/3/1 7/3/1
f 25/3/1 22/3/1 21/3/1
f 26/2/1 2/2/1 12/2/1
f 26/3/1 24/3/1 25/3/1
f 26/3/1 12/3/1 24/3/1
f 27/2/1 25/2/1 1/2/1
f 27/2/1 26/2/1 25/2/1
f 28/2/1 2/2/1 26/2/1
f 28/2/1 26/2/1 27/2/1
f 31/2/1 30/2/1 29/2/1
f 32/2/1 30/2/1 31/2/1
f 33/2/1 31/2/1 29/2/1
f 34/2/1 31/2/1 33/2/1
f 35/2/1 30/2/1 32/2/1
f 36/2/1 30/2/1 35/2/1
f 37/2/1 35/2/1 34/2/1
f 38/2/1 35/2/1 37/2/1
f 41/2/1 40/2/1 39/2/1
f 42/2/1 40/2/1 41/2/1
f 43/2/1 41/2/1 39/2/1
f 44/2/1 41/2/1 43/2/1
f 45/2/1 40/2/1 42/2/1
f 46/2/1 40/2/1 45/2/1
f 52/2/1 48/2/1 47/2/1
f 53/2/1 48/2/1 52/2/1
f 54/2/1 50/2/1 49/2/1
f 55/2/1 50/2/1 54/2/1
f 58/2/1 53/2/1 52/2/1
f 58/2/1 56/2/1 55/2/1
f 58/2/1 55/2/1 54/2/1
f 58/2/1 54/2/1 53/2/1
f 58/2/1 52/2/1 51/2/1
f 59/2/1 56/2/1 58/2/1
f 61/2/1 58/2/1 57/2/1
f 62/2/1 58/2/1 61/2/1
f 65/2/1 60/2/1 59/2/1
f 66/2/1 60/2/1 65/2/1
f 67/2/1 63/2/1 62/2/1
f 68/2/1 63/2/1 67/2/1
f 69/2/1 65/2/1 64/2/1
f 70/2/1 65/2/1 69/2/1
f 75/4/1 72/4/1 71/4/1
f 76/4/1 72/4/1 75/4/1
f 77/4/1 74/4/1 73/4/1
f 78/4/1 74/4/1 77/4/1
f 80/3/1 76/3/1 75/3/1
f 81/3/1 76/3/1 80/3/1
f 84/3/1 78/3/1 77/3/1
f 85/3/1 78/3/1 84/3/1
f 87/2/1 80/2/1 79/2/1
f 88/2/1 80/2/1 87/2/1
f 89/2/1 82/2/1 81/2/1
f 90/2/1 82/2/1 89/2/1
f 91/2/1 84/2/1 83/2/1
f 92/2/1 84/2/1 91/2/1
f 93/2/1 86/2/1 85/2/1
f 94/2/1 86/2/1 93/2/1
f 99/2/1 96/2/1 95/2/1
f 100/2/1 96/2/1 99/2/1
f 101/2/1 98/2/1 97/2/1
f 102/2/1 98/2/1 101/2/1
f 107/4/1 104/4/1 103/4/1
f 108/4/1 104/4/1 107/4/1
f 109/4/1 106/4/1 105/4/1
f 110/4/1 106/4/1 109/4/1
f 112/3/1 108/3/1 107/3/1
f 113/3/1 108/3/1 112/3/1
f 116/3/1 110/3/1 109/3/1
f 117/3/1 110/3/1 116/3/1
f 119/2/1 112/2/1 111/2/1
f 120/2/1 112/2/1 119/2/1
f 121/2/1 114/2/1 113/2/1
f 122/2/1 114/2/1 121/2/1
f 123/2/1 116/2/1 115/2/1
f 124/2/1 116/2/1 123/2/1
f 125/2/1 118/2/1 117/2/1
f 126/2/1 118/2/1 125/2/1
f 127/4/2 128/4/2 131/4/2
f 131/4/2 128/4/2 132/4/2
f 129/4/2 130/4/2 133/4/2
f 133/4/2 130/4/2 134/4/2
f 131/3/2 132/3/2 136/3/2
f 136/3/2 132/3/2 137/3/2
f 133/3/2 134/3/2 140/3/2
f 140/3/2 134/3/2 141/3/2
f 135/2/2 136/2/2 143/2/2
f 143/2/2 136/2/2 144/2/2
f 137/2/2 138/2/2 145/2/2
f 145/2/2 138/2/2 146/2/2
f 139/2/2 140/2/2 147/2/2
f 147/2/2 140/2/2 148/2/2
f 141/2/2 142/2/2 149/2/2
f 149/2/2 142/2/2 150/2/2
f 151/2/2 152/2/2 155/2/2
f 155/2/2 152/2/2 156/2/2
f 153/2/2 154/2/2 157/2/2
f 157/2/2 154/2/2 158/2/2
f 159/2/2 160/2/2 163/2/2
f 163/2/2 160/2/2 164/2/2
f 161/2/2 162/2/2 165/2/2
f 165/2/2 162/2/2 166/2/2
f 164/2/2 165/2/2 167/2/2
f 167/2/2 165/2/2 168/2/2
f 169/2/2 170/2/2 171/2/2
f 171/2/2 170/2/2 172/2/2
f 173/4/2 174/4/2 177/4/2
f 177/4/2 174/4/2 178/4/2
f 175/4/2 176/4/2 179/4/2
f 179/4/2 176/4/2 180/4/2
f 177/3/2 178/3/2 182/3/2
f 182/3/2 178/3/2 183/3/2
f 179/3/2 180/3/2 186/3/2
f 186/3/2 180/3/2 187/3/2
f 181/2/2 182/2/2 189/2/2
f 189/2/2 182/2/2 190/2/2
f 183/2/2 184/2/2 191/2/2
f 191/2/2 184/2/2 192/2/2
f 185/2/2 186/2/2 193/2/2
f 193/2/2 186/2/2 194/2/2
f 187/2/2 188/2/2 195/2/2
f 195/2/2 188/2/2 196/2/2
f 197/2/2 198/2/2 202/2/2
f 202/2/2 198/2/2 203/2/2
f 199/2/2 200/2/2 204/2/2
f 204/2/2 200/2/2 205/2/2
f 202/2/2 203/2/2 208/2/2
f 205/2/2 206/2/2 208/2/2
f 204/2/2 205/2/2 208/2/2
f 203/2/2 204/2/2 208/2/2
f 201/2/2 202/2/2 208/2/2
f 208/2/2 206/2/2 209/2/2
f 207/2/2 208/2/2 211/2/2
f 211/2/2 208/2/2 212/2/2
f 209/2/2 210/2/2 213/2/2
f 213/2/2 210/2/2 214/2/2
f 212/2/2 213/2/2 215/2/2
f 215/2/2 213/2/2 216/2/2
f 217/2/2 218/2/2 219/2/2
f 219/2/2 218/2/2 220/2/2
f 223/2/3 222/2/3 221/2/3
f 224/2/3 222/2/3 223/2/3
f 228/2/3 226/2/3 225/2/3
f 229/2/3 226/2/3 228/2/3
f 232/2/3 228/2/3 227/2/3
f 233/2/3 232/2/3 231/2/3
f 234/2/3 228/2/3 232/2/3
f 234/2/3 232/2/3 233/2/3
f 236/2/3 228/2/3 234/2/3
f 237/2/3 236/2/3 235/2/3
f 238/2/3 228/2/3 236/2/3
f 238/2/3 236/2/3 237/2/3
f 239/2/3 228/2/3 238/2/3
f 240/2/3 228/2/3 239/2/3
f 241/2/3 230/2/3 229/2/3
f 242/2/3 230/2/3 241/2/3
f 243/2/3 241/2/3 240/2/3
f 244/2/3 241/2/3 243/2/3
f 249/2/3 246/2/3 245/2/3
f 250/2/3 246/2/3 249/2/3
f 251/4/3 248/4/3 247/4/3
f 252/3/3 249/3/3 248/3/3
f 252/4/3 248/4/3 251/4/3
f 253/3/3 249/3/3 252/3/3
f 255/2/3 254/2/3 253/2/3
f 256/2/3 254/2/3 255/2/3
f 261/2/3 258/2/3 257/2/3
f 262/2/3 258/2/3 261/2/3
f 263/4/3 260/4/3 259/4/3
f 264/3/3 261/3/3 260/3/3
f 264/4/3 260/4/3 263/4/3
f 265/3/3 261/3/3 264/3/3
f 267/2/3 266/2/3 265/2/3
f 268/2/3 266/2/3 267/2/3
f 271/2/3 270/2/3 269/2/3
f 272/2/3 270/2/3 271/2/3
f 273/2/3 270/2/3 272/2/3
f 274/2/3 270/2/3 273/2/3
f 275/2/3 270/2/3 274/2/3
f 276/2/3 270/2/3 275/2/3
f 279/2/3 278/2/3 277/2/3
f 280/2/3 278/2/3 279/2/3
f 283/2/3 281/2/3 280/2/3
f 284/2/3 281/2/3 283/2/3
f 285/2/3 283/2/3 282/2/3
f 286/2/3 283/2/3 285/2/3
f 289/2/3 288/2/3 287/2/3
f 290/2/3 288/2/3 289/2/3
f 293/2/3 292/2/3 291/2/3
f 294/2/3 292/2/3 293/2/3
f 299/2/3 296/2/3 295/2/3
f 300/2/3 296/2/3 299/2/3
f 301/4/3 298/4/3 297/4/3
f 302/3/3 299/3/3 298/3/3
f 302/4/3 298/4/3 301/4/3
f 303/3/3 299/3/3 302/3/3
f 305/2/3 304/2/3 303/2/3
f 306/2/3 304/2/3 305/2/3
f 311/2/3 308/2/3 307/2/3
f 312/2/3 308/2/3 311/2/3
f 313/4/3 310/4/3 309/4/3
f 314/3/3 311/3/3 310/3/3
f 314/4/3 310/4/3 313/4/3
f 315/3/3 311/3/3 314/3/3
f 317/2/3 316/2/3 315/2/3
f 318/2/3 316/2/3 317/2/3
f 319/2/4 320/2/4 323/2/4
f 323/2/4 320/2/4 324/2/4
f 321/4/4 322/4/4 325/4/4
f 322/3/4 323/3/4 326/3/4
f 325/4/4 322/4/4 326/4/4
f 326/3/4 323/3/4 327/3/4
f 327/2/4 328/2/4 329/2/4
f 329/2/4 328/2/4 330/2/4
f 331/2/4 332/2/4 335/2/4
f 335/2/4 332/2/4 336/2/4
f 333/4/4 334/4/4 337/4/4
f 334/3/4 335/3/4 338/3/4
f 337/4/4 334/4/4 338/4/4
f 338/3/4 335/3/4 339/3/4
f 339/2/4 340/2/4 341/2/4
f 341/2/4 340/2/4 342/2/4
f 343/2/4 344/2/4 345/2/4
f 345/2/4 344/2/4 346/2/4
f 347/2/4 348/2/4 349/2/4
f 349/2/4 348/2/4 350/2/4
f 351/2/4 352/2/4 353/2/4
f 353/2/4 352/2/4 354/2/4
f 354/2/4 355/2/4 357/2/4
f 357/2/4 355/2/4 358/2/4
f 356/2/4 357/2/4 359/2/4
f 359/2/4 357/2/4 360/2/4
f 361/2/4 362/2/4 363/2/4
f 363/2/4 362/2/4 364/2/4
f 364/2/4 362/2/4 365/2/4
f 365/2/4 362/2/4 366/2/4
f 366/2/4 362/2/4 367/2/4
f 367/2/4 362/2/4 368/2/4
f 369/2/4 370/2/4 373/2/4
f 373/2/4 370/2/4 374/2/4
f 371/4/4 372/4/4 375/4/4
f 372/3/4 373/3/4 376/3/4
f 375/4/4 372/4/4 376/4/4
f 376/3/4 373/3/4 377/3/4
f 377/2/4 378/2/4 379/2/4
f 379/2/4 378/2/4 380/2/4
f 381/2/4 382/2/4 385/2/4
f 385/2/4 382/2/4 386/2/4
f 383/4/4 384/4/4 387/4/4
f 384/3/4 385/3/4 388/3/4
f 387/4/4 384/4/4 388/4/4
f 388/3/4 385/3/4 389/3/4
f 389/2/4 390/2/4 391/2/4
f 391/2/4 390/2/4 392/2/4
f 393/2/4 394/2/4 396/2/4
f 396/2/4 394/2/4 397/2/4
f 395/2/4 396/2/4 400/2/4
f 399/2/4 400/2/4 401/2/4
f 400/2/4 396/2/4 402/2/4
f 401/2/4 400/2/4 402/2/4
f 402/2/4 396/2/4 404/2/4
f 403/2/4 404/2/4 405/2/4
f 404/2/4 396/2/4 406/2/4
f 405/2/4 404/2/4 406/2/4
f 406/2/4 396/2/4 407/2/4
f 407/2/4 396/2/4 408/2/4
f 397/2/4 398/2/4 409/2/4
f 409/2/4 398/2/4 410/2/4
f 408/2/4 409/2/4 411/2/4
f 411/2/4 409/2/4 412/2/4
f 413/2/4 414/2/4 415/2/4
f 415/2/4 414/2/4 416/2/4
f 421/4/5 418/4/5 417/4/5
f 422/4/5 418/4/5 421/4/5
f 423/4/5 420/4/5 419/4/5
f 424/4/5 420/4/5 423/4/5
f 429/4/5 426/4/5 425/4/5
f 430/4/5 426/4/5 429/4/5
f 431/4/5 428/4/5 427/4/5
f 432/4/5 428/4/5 431/4/5
f 438/2/5 434/2/5 433/2/5
f 439/2/5 434/2/5 438/2/5
f 442/2/5 436/2/5 435/2/5
f 443/2/5 436/2/5 442/2/5
f 445/2/5 438/2/5 437/2/5
f 446/2/5 438/2/5 445/2/5
f 447/2/5 440/2/5 439/2/5
f 448/2/5 440/2/5 447/2/5
f 449/2/5 442/2/5 441/2/5
f 450/2/5 442/2/5 449/2/5
f 451/2/5 444/2/5 443/2/5
f 452/2/5 444/2/5 451/2/5
f 453/2/5 447/2/5 446/2/5
f 454/2/5 447/2/5 453/2/5
f 455/2/5 451/2/5 450/2/5
f 456/2/5 451/2/5 455/2/5
f 462/2/5 458/2/5 457/2/5
f 463/2/5 458/2/5 462/2/5
f 466/2/5 460/2/5 459/2/5
f 467/2/5 460/2/5 466/2/5
f 469/2/5 462/2/5 461/2/5
f 470/2/5 462/2/5 469/2/5
f 471/2/5 464/2/5 463/2/5
f 472/2/5 464/2/5 471/2/5
f 473/2/5 466/2/5 465/2/5
f 474/2/5 466/2/5 473/2/5
f 475/2/5 468/2/5 467/2/5
f 476/2/5 468/2/5 475/2/5
f 477/2/5 471/2/5 470/2/5
f 478/2/5 471/2/5 477/2/5
f 479/2/5 475/2/5 474/2/5
f 480/2/5 475/2/5 479/2/5
f 487/2/5 482/2/5 481/2/5
f 488/2/5 482/2/5 487/2/5
f 489/2/5 484/2/5 483/2/5
f 490/2/5 484/2/5 489/2/5
f 491/2/5 484/2/5 490/2/5
f 492/2/5 484/2/5 491/2/5
f 493/2/5 486/2/5 485/2/5
f 494/2/5 486/2/5 493/2/5
f 498/2/5 491/2/5 490/2/5
f 499/2/5 491/2/5 498/2/5
f 503/2/5 496/2/5 495/2/5
f 504/2/5 498/2/5 497/2/5
f 504/2/5 499/2/5 498/2/5
f 504/2/5 500/2/5 499/2/5
f 505/2/5 500/2/5 504/2/5
f 506/2/5 502/2/5 501/2/5
f 507/2/5 505/2/5 504/2/5
f 507/2/5 506/2/5 505/2/5
f 507/2/5 503/2/5 495/2/5
f 507/2/5 504/2/5 503/2/5
f 508/2/5 506/2/5 507/2/5
f 509/2/5 506/2/5 508/2/5
f 510/2/5 502/2/5 506/2/5
f 510/2/5 506/2/5 509/2/5
f 511/2/5 507/2/5 495/2/5
f 512/2/5 507/2/5 511/2/5
f 513/2/5 509/2/5 508/2/5
f 514/2/5 509/2/5 513/2/5
f 515/2/5 509/2/5 514/2/5
f 516/2/5 509/2/5 515/2/5
f 517/2/5 502/2/5 510/2/5
f 518/2/5 502/2/5 517/2/5
f 522/2/5 515/2/5 514/2/5
f 523/2/5 515/2/5 522/2/5
f 527/2/5 520/2/5 519/2/5
f 528/2/5 520/2/5 527/2/5
f 529/2/5 522/2/5 521/2/5
f 529/2/5 523/2/5 522/2/5
f 529/2/5 524/2/5 523/2/5
f 530/2/5 524/2/5 529/2/5
f 531/2/5 526/2/5 525/2/5
f 532/2/5 526/2/5 531/2/5
f 536/2/5 534/2/5 533/2/5
f 537/2/5 534/2/5 536/2/5
f 539/2/5 536/2/5 535/2/5
f 540/2/5 536/2/5 539/2/5
f 541/2/5 538/2/5 537/2/5
f 542/2/5 538/2/5 541/2/5
f 543/2/5 541/2/5 540/2/5
f 544/2/5 541/2/5 543/2/5
f 547/2/5 546/2/5 545/2/5
f 548/2/5 546/2/5 547/2/5
f 551/2/5 550/2/5 549/2/5
f 552/2/5 550/2/5 551/2/5
f 553/2/6 554/2/6 556/2/6
f 556/2/6 554/2/6 557/2/6
f 555/2/6 556/2/6 559/2/6
f 559/2/6 556/2/6 560/2/6
f 561/2/6 562/2/6 563/2/6
f 563/2/6 562/2/6 564/2/6
f 557/2/6 558/2/6 565/2/6
f 565/2/6 558/2/6 566/2/6
f 564/2/6 565/2/6 567/2/6
f 567/2/6 565/2/6 568/2/6
f 569/2/6 570/2/6 571/2/6
f 571/2/6 570/2/6 572/2/6
f 572/2/6 570/2/6 573/2/6
f 573/2/6 570/2/6 574/2/6
f 574/2/6 570/2/6 576/2/6
f 575/2/6 576/2/6 578/2/6
f 577/2/6 578/2/6 579/2/6
f 576/2/6 570/2/6 580/2/6
f 579/2/6 578/2/6 580/2/6
f 578/2/6 576/2/6 580/2/6
f 581/2/6 582/2/6 584/2/6
f 584/2/6 582/2/6 585/2/6
f 583/2/6 584/2/6 587/2/6
f 587/2/6 584/2/6 588/2/6
f 585/2/6 586/2/6 589/2/6
f 589/2/6 586/2/6 590/2/6
f 588/2/6 589/2/6 591/2/6
f 591/2/6 589/2/6 592/2/6
f 593/2/6 594/2/6 595/2/6
f 595/2/6 594/2/6 596/2/6
