# MagicaVoxel @ Ephtracy

# group
o 

# material
mtllib portrait.mtl
usemtl palette

# normals
vn -1 0 0
vn 1 0 0
vn 0 0 1
vn 0 0 -1
vn 0 -1 0
vn 0 1 0

# texcoords
vt 0.306641 0.5
vt 0.654297 0.5
vt 0.701172 0.5
vt 0.876953 0.5
vt 0.958984 0.5

# verts
v -2 0 0.2
v -2 0 -0.1
v -2 4 0.2
v -2 4 -0.1
v 1.8 0.2 0.2
v 1.8 0.2 0.1
v 1.8 3.8 0.2
v 1.8 3.8 0.1
v -1.8 0.2 0.2
v -1.8 0.2 0.1
v -1.8 3.8 0.2
v -1.8 3.8 0.1
v 2 0 0.2
v 2 0 -0.1
v 2 4 0.2
v 2 4 -0.1
v -2 0 0.2
v -2 4 0.2
v -1.8 0.2 0.2
v -1.8 3.8 0.2
v 1.8 0.2 0.2
v 1.8 3.8 0.2
v 2 0 0.2
v 2 4 0.2
v -1.8 0.2 0.1
v -1.8 3.8 0.1
v -1.2 0.9 0.1
v -1.2 3.2 0.1
v -0.8 2.5 0.1
v -0.8 2.7 0.1
v -0.7 2.4 0.1
v -0.7 2.5 0.1
v -0.7 2.6 0.1
v -0.6 2.3 0.1
v -0.6 2.4 0.1
v -0.6 2.5 0.1
v -0.5 1.4 0.1
v -0.5 1.5 0.1
v -0.4 1.4 0.1
v -0.4 1.5 0.1
v -0.4 1.6 0.1
v -0.4 2.3 0.1
v -0.4 2.4 0.1
v -0.4 2.5 0.1
v -0.3 1.6 0.1
v -0.3 1.7 0.1
v -0.3 2.4 0.1
v -0.3 2.5 0.1
v -0.3 2.6 0.1
v -0.2 1.7 0.1
v -0.2 1.8 0.1
v -0.2 2.5 0.1
v -0.2 2.7 0.1
v -0.0999999 1.6 0.1
v -0.0999999 1.7 0.1
v -0.0999999 1.8 0.1
v -0.0999999 1.9 0.1
v 0.1 1.6 0.1
v 0.1 1.7 0.1
v 0.1 1.8 0.1
v 0.1 1.9 0.1
v 0.2 1.7 0.1
v 0.2 1.8 0.1
v 0.3 1.6 0.1
v 0.3 1.7 0.1
v 0.3 2.5 0.1
v 0.3 2.7 0.1
v 0.4 1.4 0.1
v 0.4 1.5 0.1
v 0.4 1.6 0.1
v 0.4 2.4 0.1
v 0.4 2.5 0.1
v 0.4 2.6 0.1
v 0.5 1.4 0.1
v 0.5 1.5 0.1
v 0.5 2.3 0.1
v 0.5 2.4 0.1
v 0.5 2.5 0.1
v 0.7 2.3 0.1
v 0.7 2.4 0.1
v 0.7 2.5 0.1
v 0.8 2.4 0.1
v 0.8 2.5 0.1
v 0.8 2.6 0.1
v 0.9 2.5 0.1
v 0.9 2.7 0.1
v 1.2 0.9 0.1
v 1.2 3.2 0.1
v 1.8 0.2 0.1
v 1.8 3.8 0.1
v -2 0 -0.1
v -2 4 -0.1
v 2 0 -0.1
v 2 4 -0.1
v -2 0 0.2
v 2 0 0.2
v -2 0 -0.1
v 2 0 -0.1
v -1.8 3.8 0.2
v 1.8 3.8 0.2
v -1.8 3.8 0.1
v 1.8 3.8 0.1
v -1.8 0.2 0.2
v 1.8 0.2 0.2
v -1.8 0.2 0.1
v 1.8 0.2 0.1
v -2 4 0.2
v 2 4 0.2
v -2 4 -0.1
v 2 4 -0.1

# faces
f 3/3/1 2/3/1 1/3/1
f 4/3/1 2/3/1 3/3/1
f 7/3/1 6/3/1 5/3/1
f 8/3/1 6/3/1 7/3/1
f 9/3/2 10/3/2 11/3/2
f 11/3/2 10/3/2 12/3/2
f 13/3/2 14/3/2 15/3/2
f 15/3/2 14/3/2 16/3/2
f 19/3/3 18/3/3 17/3/3
f 20/3/3 18/3/3 19/3/3
f 21/3/3 19/3/3 17/3/3
f 22/3/3 18/3/3 20/3/3
f 23/3/3 21/3/3 17/3/3
f 23/3/3 22/3/3 21/3/3
f 24/3/3 18/3/3 22/3/3
f 24/3/3 22/3/3 23/3/3
f 27/5/3 26/5/3 25/5/3
f 28/5/3 26/5/3 27/5/3
f 29/2/3 28/2/3 27/2/3
f 30/2/3 28/2/3 29/2/3
f 31/2/3 29/2/3 27/2/3
f 32/4/3 30/4/3 29/4/3
f 32/2/3 29/2/3 31/2/3
f 33/4/3 30/4/3 32/4/3
f 34/2/3 31/2/3 27/2/3
f 35/4/3 32/4/3 31/4/3
f 35/2/3 31/2/3 34/2/3
f 36/5/3 33/5/3 32/5/3
f 36/4/3 32/4/3 35/4/3
f 37/2/3 34/2/3 27/2/3
f 38/2/3 34/2/3 37/2/3
f 39/2/3 37/2/3 27/2/3
f 39/4/3 38/4/3 37/4/3
f 40/2/3 34/2/3 38/2/3
f 40/4/3 38/4/3 39/4/3
f 41/2/3 34/2/3 40/2/3
f 42/4/3 35/4/3 34/4/3
f 42/2/3 34/2/3 41/2/3
f 43/5/3 36/5/3 35/5/3
f 43/4/3 35/4/3 42/4/3
f 44/5/3 33/5/3 36/5/3
f 44/5/3 36/5/3 43/5/3
f 45/2/3 43/2/3 42/2/3
f 45/4/3 41/4/3 40/4/3
f 45/2/3 42/2/3 41/2/3
f 46/2/3 43/2/3 45/2/3
f 47/4/3 44/4/3 43/4/3
f 47/2/3 43/2/3 46/2/3
f 48/5/3 33/5/3 44/5/3
f 48/4/3 44/4/3 47/4/3
f 49/4/3 30/4/3 33/4/3
f 49/5/3 33/5/3 48/5/3
f 50/2/3 48/2/3 47/2/3
f 50/2/3 47/2/3 46/2/3
f 50/3/3 46/3/3 45/3/3
f 51/2/3 48/2/3 50/2/3
f 52/4/3 49/4/3 48/4/3
f 52/2/3 48/2/3 51/2/3
f 53/2/3 28/2/3 30/2/3
f 53/4/3 49/4/3 52/4/3
f 53/4/3 30/4/3 49/4/3
f 54/3/3 50/3/3 45/3/3
f 54/3/3 51/3/3 50/3/3
f 54/4/3 45/4/3 40/4/3
f 55/3/3 51/3/3 54/3/3
f 56/2/3 52/2/3 51/2/3
f 56/3/3 51/3/3 55/3/3
f 56/2/3 53/2/3 52/2/3
f 57/2/3 53/2/3 56/2/3
f 58/2/3 55/2/3 54/2/3
f 58/4/3 54/4/3 40/4/3
f 59/3/3 57/3/3 56/3/3
f 59/2/3 55/2/3 58/2/3
f 59/3/3 56/3/3 55/3/3
f 60/3/3 57/3/3 59/3/3
f 61/2/3 53/2/3 57/2/3
f 61/3/3 57/3/3 60/3/3
f 62/3/3 60/3/3 59/3/3
f 62/3/3 59/3/3 58/3/3
f 63/2/3 61/2/3 60/2/3
f 63/3/3 60/3/3 62/3/3
f 64/4/3 58/4/3 40/4/3
f 64/3/3 62/3/3 58/3/3
f 65/2/3 63/2/3 62/2/3
f 65/3/3 62/3/3 64/3/3
f 66/2/3 53/2/3 61/2/3
f 66/2/3 63/2/3 65/2/3
f 66/2/3 61/2/3 63/2/3
f 67/2/3 28/2/3 53/2/3
f 67/2/3 53/2/3 66/2/3
f 68/2/3 39/2/3 27/2/3
f 68/2/3 40/2/3 39/2/3
f 69/4/3 64/4/3 40/4/3
f 69/2/3 40/2/3 68/2/3
f 70/2/3 65/2/3 64/2/3
f 70/4/3 64/4/3 69/4/3
f 70/2/3 66/2/3 65/2/3
f 71/2/3 66/2/3 70/2/3
f 72/4/3 67/4/3 66/4/3
f 72/2/3 66/2/3 71/2/3
f 73/4/3 67/4/3 72/4/3
f 74/4/3 69/4/3 68/4/3
f 74/2/3 68/2/3 27/2/3
f 75/2/3 71/2/3 70/2/3
f 75/4/3 69/4/3 74/4/3
f 75/2/3 70/2/3 69/2/3
f 76/2/3 71/2/3 75/2/3
f 77/4/3 72/4/3 71/4/3
f 77/2/3 71/2/3 76/2/3
f 78/5/3 73/5/3 72/5/3
f 78/4/3 72/4/3 77/4/3
f 79/4/3 77/4/3 76/4/3
f 79/2/3 76/2/3 75/2/3
f 79/2/3 75/2/3 74/2/3
f 80/5/3 78/5/3 77/5/3
f 80/4/3 77/4/3 79/4/3
f 81/5/3 73/5/3 78/5/3
f 81/5/3 78/5/3 80/5/3
f 82/2/3 80/2/3 79/2/3
f 82/4/3 81/4/3 80/4/3
f 83/5/3 73/5/3 81/5/3
f 83/4/3 81/4/3 82/4/3
f 84/4/3 67/4/3 73/4/3
f 84/5/3 73/5/3 83/5/3
f 85/2/3 83/2/3 82/2/3
f 85/4/3 84/4/3 83/4/3
f 86/4/3 67/4/3 84/4/3
f 86/4/3 84/4/3 85/4/3
f 86/2/3 28/2/3 67/2/3
f 87/5/3 27/5/3 25/5/3
f 87/2/3 85/2/3 82/2/3
f 87/2/3 86/2/3 85/2/3
f 87/2/3 79/2/3 74/2/3
f 87/2/3 82/2/3 79/2/3
f 87/2/3 74/2/3 27/2/3
f 88/2/3 28/2/3 86/2/3
f 88/2/3 86/2/3 87/2/3
f 88/5/3 26/5/3 28/5/3
f 89/5/3 87/5/3 25/5/3
f 89/5/3 88/5/3 87/5/3
f 90/5/3 26/5/3 88/5/3
f 90/5/3 88/5/3 89/5/3
f 91/3/4 92/3/4 93/3/4
f 93/3/4 92/3/4 94/3/4
f 97/3/5 96/3/5 95/3/5
f 98/3/5 96/3/5 97/3/5
f 101/3/5 100/3/5 99/3/5
f 102/3/5 100/3/5 101/3/5
f 103/3/6 104/3/6 105/3/6
f 105/3/6 104/3/6 106/3/6
f 107/3/6 108/3/6 109/3/6
f 109/3/6 108/3/6 110/3/6
