# MagicaVoxel @ Ephtracy

# group
o 

# material
mtllib tv.mtl
usemtl palette

# normals
vn -1 0 0
vn 1 0 0
vn 0 0 1
vn 0 0 -1
vn 0 -1 0
vn 0 1 0

# texcoords
vt 0.0917969 0.5
vt 0.119141 0.5
vt 0.185547 0.5
vt 0.228516 0.5
vt 0.466797 0.5
vt 0.615234 0.5
vt 0.623047 0.5
vt 0.658203 0.5
vt 0.689453 0.5
vt 0.841797 0.5
vt 0.958984 0.5
vt 0.990234 0.5
vt 0.994141 0.5

# verts
v -3.5 0.7 0.4
v -3.5 0.7 0.2
v -3.5 5.8 0.4
v -3.5 5.8 0.2
v -3.3 1.2 0.2
v -3.3 1.2 0.1
v -3.3 5.6 0.2
v -3.3 5.6 0.1
v -2.3 2.2 0.1
v -2.3 2.2 0
v -2.3 4.9 0.1
v -2.3 4.9 0
v -2 2.5 0
v -2 2.5 -0.1
v -2 4.6 0
v -2 4.6 -0.1
v -1.4 0.3 0.5
v -1.4 0.3 0.1
v -1.4 0.4 0.5
v -1.4 0.4 0.1
v -1 0.4 0.4
v -1 0.4 0.2
v -1 0.7 0.4
v -1 0.7 0.2
v 0.6 0.4 0.4
v 0.6 0.4 0.2
v 0.6 0.7 0.4
v 0.6 0.7 0.2
v 3.1 1.3 0.4
v 3.1 1.3 0.3
v 3.1 5.6 0.4
v 3.1 5.6 0.3
v -3.3 1.3 0.4
v -3.3 1.3 0.3
v -3.3 5.6 0.4
v -3.3 5.6 0.3
v -0.8 0.4 0.4
v -0.8 0.4 0.2
v -0.8 0.7 0.4
v -0.8 0.7 0.2
v 0.8 0.4 0.4
v 0.8 0.4 0.2
v 0.8 0.7 0.4
v 0.8 0.7 0.2
v 1.2 0.3 0.5
v 1.2 0.3 0.1
v 1.2 0.4 0.5
v 1.2 0.4 0.1
v 1.9 2.5 0
v 1.9 2.5 -0.1
v 1.9 4.6 0
v 1.9 4.6 -0.1
v 2.2 2.2 0.1
v 2.2 2.2 0
v 2.2 4.9 0.1
v 2.2 4.9 0
v 3.1 1.2 0.2
v 3.1 1.2 0.1
v 3.1 5.6 0.2
v 3.1 5.6 0.1
v 3.3 0.7 0.4
v 3.3 0.7 0.2
v 3.3 5.8 0.4
v 3.3 5.8 0.2
v -1.4 0.3 0.5
v -1.4 0.4 0.5
v 1.2 0.3 0.5
v 1.2 0.4 0.5
v -3.5 0.7 0.4
v -3.5 5.8 0.4
v -3.3 1.3 0.4
v -3.3 5.6 0.4
v -1 0.4 0.4
v -1 0.7 0.4
v -0.8 0.4 0.4
v -0.8 0.7 0.4
v 0.6 0.4 0.4
v 0.6 0.7 0.4
v 0.8 0.4 0.4
v 0.8 0.7 0.4
v 3.1 1.3 0.4
v 3.1 5.6 0.4
v 3.3 0.7 0.4
v 3.3 5.8 0.4
v -3.3 1.3 0.3
v -3.3 5.6 0.3
v 3.1 1.3 0.3
v 3.1 5.6 0.3
v -3.5 0.7 0.2
v -3.5 5.8 0.2
v -3.3 1.2 0.2
v -3.3 5.6 0.2
v -1 0.4 0.2
v -1 0.7 0.2
v -0.8 0.4 0.2
v -0.8 0.7 0.2
v 0.6 0.4 0.2
v 0.6 0.7 0.2
v 0.8 0.4 0.2
v 0.8 0.7 0.2
v 3.1 1.2 0.2
v 3.1 5.6 0.2
v 3.3 0.7 0.2
v 3.3 5.8 0.2
v -3.3 1.2 0.1
v -3.3 5.6 0.1
v -2.3 2.2 0.1
v -2.3 4.9 0.1
v -1.4 0.3 0.1
v -1.4 0.4 0.1
v 1.2 0.3 0.1
v 1.2 0.4 0.1
v 2.2 2.2 0.1
v 2.2 4.9 0.1
v 3.1 1.2 0.1
v 3.1 5.6 0.1
v -2.3 2.2 0
v -2.3 4.9 0
v -2 2.5 0
v -2 4.6 0
v 1.9 2.5 0
v 1.9 4.6 0
v 2.2 2.2 0
v 2.2 4.9 0
v -2 2.5 -0.1
v -2 4.6 -0.1
v -0.5 3.2 -0.1
v -0.5 3.3 -0.1
v -0.5 3.4 -0.1
v -0.5 3.5 -0.1
v -0.5 3.6 -0.1
v -0.5 3.7 -0.1
v -0.5 3.8 -0.1
v -0.5 3.9 -0.1
v -0.5 4 -0.1
v -0.4 3.6 -0.1
v -0.4 3.7 -0.1
v -0.4 3.8 -0.1
v -0.4 3.9 -0.1
v -0.3 3.3 -0.1
v -0.3 3.4 -0.1
v -0.3 3.5 -0.1
v -0.3 3.6 -0.1
v -0.3 3.7 -0.1
v -0.3 3.8 -0.1
v -0.2 3.3 -0.1
v -0.2 3.5 -0.1
v -0.2 3.7 -0.1
v -0.2 3.8 -0.1
v 2.38419e-007 3.3 -0.1
v 2.38419e-007 3.5 -0.1
v 2.38419e-007 3.7 -0.1
v 2.38419e-007 3.8 -0.1
v 0.1 3.3 -0.1
v 0.1 3.4 -0.1
v 0.1 3.5 -0.1
v 0.1 3.6 -0.1
v 0.1 3.7 -0.1
v 0.1 3.8 -0.1
v 0.2 3.6 -0.1
v 0.2 3.7 -0.1
v 0.2 3.8 -0.1
v 0.2 3.9 -0.1
v 0.3 3.2 -0.1
v 0.3 3.3 -0.1
v 0.3 3.4 -0.1
v 0.3 3.5 -0.1
v 0.3 3.6 -0.1
v 0.3 3.7 -0.1
v 0.3 3.8 -0.1
v 0.3 3.9 -0.1
v 0.3 4 -0.1
v 1.9 2.5 -0.1
v 1.9 4.6 -0.1
v -1.4 0.3 0.5
v 1.2 0.3 0.5
v -1.4 0.3 0.1
v 1.2 0.3 0.1
v -3.5 0.7 0.4
v -1 0.7 0.4
v -0.8 0.7 0.4
v 0.6 0.7 0.4
v 0.8 0.7 0.4
v 3.3 0.7 0.4
v -3.5 0.7 0.2
v -1 0.7 0.2
v -0.8 0.7 0.2
v 0.6 0.7 0.2
v 0.8 0.7 0.2
v 3.3 0.7 0.2
v -3.3 1.2 0.2
v 3.1 1.2 0.2
v -3.3 1.2 0.1
v 3.1 1.2 0.1
v -2.3 2.2 0.1
v 2.2 2.2 0.1
v -2.3 2.2 0
v 2.2 2.2 0
v -2 2.5 0
v 1.9 2.5 0
v -2 2.5 -0.1
v 1.9 2.5 -0.1
v -3.3 5.6 0.4
v 3.1 5.6 0.4
v -3.3 5.6 0.3
v 3.1 5.6 0.3
v -1.4 0.4 0.5
v 1.2 0.4 0.5
v -1 0.4 0.4
v -0.8 0.4 0.4
v 0.6 0.4 0.4
v 0.8 0.4 0.4
v -1 0.4 0.2
v -0.8 0.4 0.2
v 0.6 0.4 0.2
v 0.8 0.4 0.2
v -1.4 0.4 0.1
v 1.2 0.4 0.1
v -3.3 1.3 0.4
v 3.1 1.3 0.4
v -3.3 1.3 0.3
v 3.1 1.3 0.3
v -2 4.6 0
v 1.9 4.6 0
v -2 4.6 -0.1
v 1.9 4.6 -0.1
v -2.3 4.9 0.1
v 2.2 4.9 0.1
v -2.3 4.9 0
v 2.2 4.9 0
v -3.3 5.6 0.2
v 3.1 5.6 0.2
v -3.3 5.6 0.1
v 3.1 5.6 0.1
v -3.5 5.8 0.4
v 3.3 5.8 0.4
v -3.5 5.8 0.2
v 3.3 5.8 0.2

# faces
f 3/13/1 2/13/1 1/13/1
f 4/13/1 2/13/1 3/13/1
f 7/13/1 6/13/1 5/13/1
f 8/13/1 6/13/1 7/13/1
f 11/13/1 10/13/1 9/13/1
f 12/13/1 10/13/1 11/13/1
f 15/13/1 14/13/1 13/13/1
f 16/13/1 14/13/1 15/13/1
f 19/13/1 18/13/1 17/13/1
f 20/13/1 18/13/1 19/13/1
f 23/13/1 22/13/1 21/13/1
f 24/13/1 22/13/1 23/13/1
f 27/13/1 26/13/1 25/13/1
f 28/13/1 26/13/1 27/13/1
f 31/13/1 30/13/1 29/13/1
f 32/13/1 30/13/1 31/13/1
f 33/13/2 34/13/2 35/13/2
f 35/13/2 34/13/2 36/13/2
f 37/13/2 38/13/2 39/13/2
f 39/13/2 38/13/2 40/13/2
f 41/13/2 42/13/2 43/13/2
f 43/13/2 42/13/2 44/13/2
f 45/13/2 46/13/2 47/13/2
f 47/13/2 46/13/2 48/13/2
f 49/13/2 50/13/2 51/13/2
f 51/13/2 50/13/2 52/13/2
f 53/13/2 54/13/2 55/13/2
f 55/13/2 54/13/2 56/13/2
f 57/13/2 58/13/2 59/13/2
f 59/13/2 58/13/2 60/13/2
f 61/13/2 62/13/2 63/13/2
f 63/13/2 62/13/2 64/13/2
f 67/13/3 66/13/3 65/13/3
f 68/13/3 66/13/3 67/13/3
f 71/13/3 70/13/3 69/13/3
f 72/13/3 70/13/3 71/13/3
f 74/13/3 71/13/3 69/13/3
f 75/13/3 74/13/3 73/13/3
f 76/13/3 71/13/3 74/13/3
f 76/13/3 74/13/3 75/13/3
f 78/13/3 71/13/3 76/13/3
f 79/13/3 78/13/3 77/13/3
f 80/13/3 71/13/3 78/13/3
f 80/13/3 78/13/3 79/13/3
f 81/13/3 71/13/3 80/13/3
f 82/13/3 70/13/3 72/13/3
f 83/13/3 81/13/3 80/13/3
f 83/13/3 82/13/3 81/13/3
f 84/13/3 70/13/3 82/13/3
f 84/13/3 82/13/3 83/13/3
f 87/12/3 86/12/3 85/12/3
f 88/12/3 86/12/3 87/12/3
f 89/13/4 90/13/4 91/13/4
f 91/13/4 90/13/4 92/13/4
f 89/13/4 91/13/4 94/13/4
f 93/13/4 94/13/4 95/13/4
f 94/13/4 91/13/4 96/13/4
f 95/13/4 94/13/4 96/13/4
f 96/13/4 91/13/4 98/13/4
f 97/13/4 98/13/4 99/13/4
f 98/13/4 91/13/4 100/13/4
f 99/13/4 98/13/4 100/13/4
f 100/13/4 91/13/4 101/13/4
f 92/13/4 90/13/4 102/13/4
f 100/13/4 101/13/4 103/13/4
f 101/13/4 102/13/4 103/13/4
f 102/13/4 90/13/4 104/13/4
f 103/13/4 102/13/4 104/13/4
f 105/13/4 106/13/4 107/13/4
f 107/13/4 106/13/4 108/13/4
f 109/13/4 110/13/4 111/13/4
f 111/13/4 110/13/4 112/13/4
f 105/13/4 107/13/4 113/13/4
f 108/13/4 106/13/4 114/13/4
f 105/13/4 113/13/4 115/13/4
f 113/13/4 114/13/4 115/13/4
f 114/13/4 106/13/4 116/13/4
f 115/13/4 114/13/4 116/13/4
f 117/13/4 118/13/4 119/13/4
f 119/13/4 118/13/4 120/13/4
f 117/13/4 119/13/4 121/13/4
f 120/13/4 118/13/4 122/13/4
f 117/13/4 121/13/4 123/13/4
f 121/13/4 122/13/4 123/13/4
f 122/13/4 118/13/4 124/13/4
f 123/13/4 122/13/4 124/13/4
f 125/13/4 126/13/4 127/13/4
f 127/13/4 126/13/4 128/13/4
f 128/13/4 126/13/4 129/13/4
f 129/13/4 126/13/4 130/13/4
f 130/13/4 126/13/4 131/13/4
f 131/13/4 126/13/4 132/13/4
f 132/13/4 126/13/4 133/13/4
f 133/13/4 126/13/4 134/13/4
f 134/13/4 126/13/4 135/13/4
f 130/7/4 131/7/4 136/7/4
f 131/5/4 132/5/4 136/5/4
f 132/3/4 133/3/4 137/3/4
f 136/5/4 132/5/4 137/5/4
f 133/1/4 134/1/4 138/1/4
f 137/3/4 133/3/4 138/3/4
f 134/10/4 135/10/4 139/10/4
f 138/1/4 134/1/4 139/1/4
f 127/9/4 128/9/4 140/9/4
f 128/8/4 129/8/4 140/8/4
f 129/6/4 130/6/4 141/6/4
f 140/8/4 129/8/4 141/8/4
f 130/7/4 136/7/4 142/7/4
f 141/6/4 130/6/4 142/6/4
f 136/4/4 137/4/4 143/4/4
f 142/7/4 136/7/4 143/7/4
f 137/13/4 138/13/4 144/13/4
f 143/4/4 137/4/4 144/4/4
f 138/4/4 139/4/4 145/4/4
f 144/13/4 138/13/4 145/13/4
f 143/4/4 144/4/4 146/4/4
f 127/9/4 140/9/4 146/9/4
f 142/4/4 143/4/4 146/4/4
f 141/4/4 142/4/4 146/4/4
f 140/4/4 141/4/4 146/4/4
f 146/4/4 144/4/4 147/4/4
f 144/11/4 145/11/4 148/11/4
f 147/4/4 144/4/4 148/4/4
f 145/4/4 139/4/4 149/4/4
f 148/11/4 145/11/4 149/11/4
f 146/2/4 147/2/4 150/2/4
f 127/9/4 146/9/4 150/9/4
f 147/4/4 148/4/4 151/4/4
f 150/2/4 147/2/4 151/2/4
f 148/4/4 149/4/4 151/4/4
f 151/4/4 149/4/4 152/4/4
f 149/4/4 139/4/4 153/4/4
f 152/4/4 149/4/4 153/4/4
f 127/9/4 150/9/4 154/9/4
f 151/4/4 152/4/4 154/4/4
f 150/4/4 151/4/4 154/4/4
f 154/4/4 152/4/4 155/4/4
f 155/4/4 152/4/4 156/4/4
f 156/4/4 152/4/4 157/4/4
f 152/11/4 153/11/4 158/11/4
f 157/4/4 152/4/4 158/4/4
f 153/4/4 139/4/4 159/4/4
f 158/11/4 153/11/4 159/11/4
f 157/4/4 158/4/4 160/4/4
f 156/7/4 157/7/4 160/7/4
f 158/13/4 159/13/4 161/13/4
f 160/4/4 158/4/4 161/4/4
f 159/4/4 139/4/4 162/4/4
f 161/13/4 159/13/4 162/13/4
f 139/10/4 135/10/4 163/10/4
f 162/4/4 139/4/4 163/4/4
f 125/13/4 127/13/4 164/13/4
f 127/9/4 154/9/4 164/9/4
f 154/8/4 155/8/4 165/8/4
f 164/9/4 154/9/4 165/9/4
f 155/6/4 156/6/4 166/6/4
f 165/8/4 155/8/4 166/8/4
f 156/7/4 160/7/4 167/7/4
f 166/6/4 156/6/4 167/6/4
f 160/5/4 161/5/4 168/5/4
f 167/7/4 160/7/4 168/7/4
f 161/3/4 162/3/4 169/3/4
f 168/5/4 161/5/4 169/5/4
f 162/1/4 163/1/4 170/1/4
f 169/3/4 162/3/4 170/3/4
f 163/10/4 135/10/4 171/10/4
f 170/1/4 163/1/4 171/1/4
f 135/13/4 126/13/4 172/13/4
f 171/10/4 135/10/4 172/10/4
f 169/13/4 170/13/4 173/13/4
f 167/13/4 168/13/4 173/13/4
f 171/13/4 172/13/4 173/13/4
f 164/13/4 165/13/4 173/13/4
f 125/13/4 164/13/4 173/13/4
f 168/13/4 169/13/4 173/13/4
f 170/13/4 171/13/4 173/13/4
f 165/13/4 166/13/4 173/13/4
f 166/13/4 167/13/4 173/13/4
f 172/13/4 126/13/4 174/13/4
f 173/13/4 172/13/4 174/13/4
f 177/13/5 176/13/5 175/13/5
f 178/13/5 176/13/5 177/13/5
f 185/13/5 180/13/5 179/13/5
f 186/13/5 180/13/5 185/13/5
f 187/13/5 182/13/5 181/13/5
f 188/13/5 182/13/5 187/13/5
f 189/13/5 184/13/5 183/13/5
f 190/13/5 184/13/5 189/13/5
f 193/13/5 192/13/5 191/13/5
f 194/13/5 192/13/5 193/13/5
f 197/13/5 196/13/5 195/13/5
f 198/13/5 196/13/5 197/13/5
f 201/13/5 200/13/5 199/13/5
f 202/13/5 200/13/5 201/13/5
f 205/13/5 204/13/5 203/13/5
f 206/13/5 204/13/5 205/13/5
f 207/13/6 208/13/6 209/13/6
f 209/13/6 208/13/6 210/13/6
f 210/13/6 208/13/6 211/13/6
f 211/13/6 208/13/6 212/13/6
f 207/13/6 209/13/6 213/13/6
f 210/13/6 211/13/6 214/13/6
f 214/13/6 211/13/6 215/13/6
f 212/13/6 208/13/6 216/13/6
f 214/13/6 215/13/6 217/13/6
f 215/13/6 216/13/6 217/13/6
f 207/13/6 213/13/6 217/13/6
f 213/13/6 214/13/6 217/13/6
f 216/13/6 208/13/6 218/13/6
f 217/13/6 216/13/6 218/13/6
f 219/13/6 220/13/6 221/13/6
f 221/13/6 220/13/6 222/13/6
f 223/13/6 224/13/6 225/13/6
f 225/13/6 224/13/6 226/13/6
f 227/13/6 228/13/6 229/13/6
f 229/13/6 228/13/6 230/13/6
f 231/13/6 232/13/6 233/13/6
f 233/13/6 232/13/6 234/13/6
f 235/13/6 236/13/6 237/13/6
f 237/13/6 236/13/6 238/13/6
